<svg xmlns="http://www.w3.org/2000/svg" xmlns:xlink="http://www.w3.org/1999/xlink" width="500" zoomAndPan="magnify" viewBox="0 0 375 374.999991" height="500" preserveAspectRatio="xMidYMid meet" version="1.0"><defs><g/><clipPath id="62a723769b"><path d="M 86.136719 31 L 288.636719 31 L 288.636719 180.941406 L 86.136719 180.941406 Z M 86.136719 31 " clip-rule="nonzero"/></clipPath><clipPath id="e5dd45b715"><path d="M 108.714844 44.378906 L 187.386719 180.941406 L 172.378906 180.941406 L 86.203125 31.351562 L 131.226562 31.351562 L 138.730469 44.378906 L 146.234375 57.402344 L 153.738281 70.429688 L 202.394531 154.886719 L 226.722656 112.660156 L 251.046875 70.429688 L 258.550781 57.402344 L 266.054688 44.378906 L 273.558594 31.351562 L 288.566406 31.351562 L 281.066406 44.378906 L 273.558594 57.402344 L 268.203125 66.699219 L 202.394531 180.941406 L 155.960938 100.339844 L 131.226562 57.402344 L 123.722656 44.378906 Z M 108.714844 44.378906 " clip-rule="evenodd"/></clipPath><linearGradient x1="0.923832" gradientTransform="matrix(202.363275, 0, 0, 149.587414, 86.204989, 31.352819)" y1="1.028824" x2="0.467533" gradientUnits="userSpaceOnUse" y2="-0.176931" id="ba168a0592"><stop stop-opacity="1" stop-color="rgb(0%, 68.598938%, 93.699646%)" offset="0"/><stop stop-opacity="1" stop-color="rgb(0%, 68.598938%, 93.699646%)" offset="0.25"/><stop stop-opacity="1" stop-color="rgb(0%, 68.598938%, 93.699646%)" offset="0.274539"/><stop stop-opacity="1" stop-color="rgb(0%, 68.598938%, 93.699646%)" offset="0.3125"/><stop stop-opacity="1" stop-color="rgb(0%, 68.598938%, 93.699646%)" offset="0.34375"/><stop stop-opacity="1" stop-color="rgb(0%, 68.598938%, 93.699646%)" offset="0.351562"/><stop stop-opacity="1" stop-color="rgb(0.204468%, 68.629456%, 93.415833%)" offset="0.355469"/><stop stop-opacity="1" stop-color="rgb(0.410461%, 68.661499%, 93.133545%)" offset="0.359375"/><stop stop-opacity="1" stop-color="rgb(0.822449%, 68.722534%, 92.567444%)" offset="0.363281"/><stop stop-opacity="1" stop-color="rgb(1.234436%, 68.785095%, 92.002869%)" offset="0.367188"/><stop stop-opacity="1" stop-color="rgb(1.646423%, 68.84613%, 91.436768%)" offset="0.371094"/><stop stop-opacity="1" stop-color="rgb(2.058411%, 68.908691%, 90.870667%)" offset="0.375"/><stop stop-opacity="1" stop-color="rgb(2.470398%, 68.971252%, 90.304565%)" offset="0.378906"/><stop stop-opacity="1" stop-color="rgb(2.882385%, 69.033813%, 89.73999%)" offset="0.382812"/><stop stop-opacity="1" stop-color="rgb(3.294373%, 69.094849%, 89.173889%)" offset="0.386719"/><stop stop-opacity="1" stop-color="rgb(3.70636%, 69.15741%, 88.607788%)" offset="0.390625"/><stop stop-opacity="1" stop-color="rgb(4.118347%, 69.218445%, 88.041687%)" offset="0.394531"/><stop stop-opacity="1" stop-color="rgb(4.530334%, 69.281006%, 87.475586%)" offset="0.398438"/><stop stop-opacity="1" stop-color="rgb(4.942322%, 69.342041%, 86.909485%)" offset="0.402344"/><stop stop-opacity="1" stop-color="rgb(5.354309%, 69.404602%, 86.34491%)" offset="0.40625"/><stop stop-opacity="1" stop-color="rgb(5.766296%, 69.467163%, 85.778809%)" offset="0.410156"/><stop stop-opacity="1" stop-color="rgb(6.178284%, 69.529724%, 85.212708%)" offset="0.414062"/><stop stop-opacity="1" stop-color="rgb(6.590271%, 69.590759%, 84.646606%)" offset="0.417969"/><stop stop-opacity="1" stop-color="rgb(7.002258%, 69.65332%, 84.082031%)" offset="0.421875"/><stop stop-opacity="1" stop-color="rgb(7.414246%, 69.714355%, 83.51593%)" offset="0.425781"/><stop stop-opacity="1" stop-color="rgb(7.826233%, 69.776917%, 82.949829%)" offset="0.429688"/><stop stop-opacity="1" stop-color="rgb(8.23822%, 69.837952%, 82.383728%)" offset="0.433594"/><stop stop-opacity="1" stop-color="rgb(8.650208%, 69.900513%, 81.819153%)" offset="0.4375"/><stop stop-opacity="1" stop-color="rgb(9.062195%, 69.963074%, 81.253052%)" offset="0.441406"/><stop stop-opacity="1" stop-color="rgb(9.474182%, 70.025635%, 80.686951%)" offset="0.445312"/><stop stop-opacity="1" stop-color="rgb(9.886169%, 70.08667%, 80.12085%)" offset="0.449219"/><stop stop-opacity="1" stop-color="rgb(10.298157%, 70.149231%, 79.554749%)" offset="0.453125"/><stop stop-opacity="1" stop-color="rgb(10.710144%, 70.210266%, 78.988647%)" offset="0.457031"/><stop stop-opacity="1" stop-color="rgb(11.122131%, 70.272827%, 78.424072%)" offset="0.460938"/><stop stop-opacity="1" stop-color="rgb(11.534119%, 70.333862%, 77.857971%)" offset="0.464844"/><stop stop-opacity="1" stop-color="rgb(11.946106%, 70.396423%, 77.29187%)" offset="0.46875"/><stop stop-opacity="1" stop-color="rgb(12.358093%, 70.458984%, 76.725769%)" offset="0.472656"/><stop stop-opacity="1" stop-color="rgb(12.770081%, 70.521545%, 76.161194%)" offset="0.476562"/><stop stop-opacity="1" stop-color="rgb(13.182068%, 70.582581%, 75.595093%)" offset="0.480469"/><stop stop-opacity="1" stop-color="rgb(13.594055%, 70.645142%, 75.028992%)" offset="0.484375"/><stop stop-opacity="1" stop-color="rgb(14.006042%, 70.706177%, 74.462891%)" offset="0.488281"/><stop stop-opacity="1" stop-color="rgb(14.41803%, 70.768738%, 73.89679%)" offset="0.492187"/><stop stop-opacity="1" stop-color="rgb(14.830017%, 70.829773%, 73.330688%)" offset="0.496094"/><stop stop-opacity="1" stop-color="rgb(15.242004%, 70.892334%, 72.766113%)" offset="0.5"/><stop stop-opacity="1" stop-color="rgb(15.653992%, 70.954895%, 72.200012%)" offset="0.503906"/><stop stop-opacity="1" stop-color="rgb(16.065979%, 71.017456%, 71.633911%)" offset="0.507812"/><stop stop-opacity="1" stop-color="rgb(16.477966%, 71.078491%, 71.06781%)" offset="0.511719"/><stop stop-opacity="1" stop-color="rgb(16.889954%, 71.141052%, 70.503235%)" offset="0.515625"/><stop stop-opacity="1" stop-color="rgb(17.301941%, 71.202087%, 69.937134%)" offset="0.519531"/><stop stop-opacity="1" stop-color="rgb(17.713928%, 71.264648%, 69.371033%)" offset="0.523438"/><stop stop-opacity="1" stop-color="rgb(18.125916%, 71.325684%, 68.804932%)" offset="0.527344"/><stop stop-opacity="1" stop-color="rgb(18.537903%, 71.388245%, 68.240356%)" offset="0.53125"/><stop stop-opacity="1" stop-color="rgb(18.94989%, 71.450806%, 67.674255%)" offset="0.535156"/><stop stop-opacity="1" stop-color="rgb(19.361877%, 71.513367%, 67.108154%)" offset="0.539062"/><stop stop-opacity="1" stop-color="rgb(19.773865%, 71.574402%, 66.542053%)" offset="0.542969"/><stop stop-opacity="1" stop-color="rgb(20.185852%, 71.636963%, 65.975952%)" offset="0.546875"/><stop stop-opacity="1" stop-color="rgb(20.597839%, 71.697998%, 65.409851%)" offset="0.550781"/><stop stop-opacity="1" stop-color="rgb(21.009827%, 71.760559%, 64.845276%)" offset="0.554688"/><stop stop-opacity="1" stop-color="rgb(21.421814%, 71.821594%, 64.279175%)" offset="0.558594"/><stop stop-opacity="1" stop-color="rgb(21.833801%, 71.884155%, 63.713074%)" offset="0.5625"/><stop stop-opacity="1" stop-color="rgb(22.245789%, 71.946716%, 63.146973%)" offset="0.566406"/><stop stop-opacity="1" stop-color="rgb(22.657776%, 72.009277%, 62.582397%)" offset="0.570312"/><stop stop-opacity="1" stop-color="rgb(23.069763%, 72.070312%, 62.016296%)" offset="0.574219"/><stop stop-opacity="1" stop-color="rgb(23.48175%, 72.132874%, 61.450195%)" offset="0.578125"/><stop stop-opacity="1" stop-color="rgb(23.893738%, 72.193909%, 60.884094%)" offset="0.582031"/><stop stop-opacity="1" stop-color="rgb(24.305725%, 72.25647%, 60.317993%)" offset="0.585938"/><stop stop-opacity="1" stop-color="rgb(24.717712%, 72.317505%, 59.751892%)" offset="0.589844"/><stop stop-opacity="1" stop-color="rgb(25.1297%, 72.380066%, 59.187317%)" offset="0.59375"/><stop stop-opacity="1" stop-color="rgb(25.541687%, 72.442627%, 58.621216%)" offset="0.597656"/><stop stop-opacity="1" stop-color="rgb(25.953674%, 72.505188%, 58.055115%)" offset="0.601562"/><stop stop-opacity="1" stop-color="rgb(26.365662%, 72.566223%, 57.489014%)" offset="0.605469"/><stop stop-opacity="1" stop-color="rgb(26.777649%, 72.628784%, 56.924438%)" offset="0.609375"/><stop stop-opacity="1" stop-color="rgb(27.189636%, 72.689819%, 56.358337%)" offset="0.613281"/><stop stop-opacity="1" stop-color="rgb(27.601624%, 72.75238%, 55.792236%)" offset="0.617188"/><stop stop-opacity="1" stop-color="rgb(28.013611%, 72.813416%, 55.226135%)" offset="0.621094"/><stop stop-opacity="1" stop-color="rgb(28.425598%, 72.875977%, 54.66156%)" offset="0.625"/><stop stop-opacity="1" stop-color="rgb(28.837585%, 72.938538%, 54.095459%)" offset="0.628906"/><stop stop-opacity="1" stop-color="rgb(29.249573%, 73.001099%, 53.529358%)" offset="0.632812"/><stop stop-opacity="1" stop-color="rgb(29.66156%, 73.062134%, 52.963257%)" offset="0.636719"/><stop stop-opacity="1" stop-color="rgb(30.073547%, 73.124695%, 52.397156%)" offset="0.640625"/><stop stop-opacity="1" stop-color="rgb(30.485535%, 73.18573%, 51.831055%)" offset="0.644531"/><stop stop-opacity="1" stop-color="rgb(30.897522%, 73.248291%, 51.266479%)" offset="0.648438"/><stop stop-opacity="1" stop-color="rgb(31.309509%, 73.309326%, 50.700378%)" offset="0.652344"/><stop stop-opacity="1" stop-color="rgb(31.721497%, 73.371887%, 50.134277%)" offset="0.65625"/><stop stop-opacity="1" stop-color="rgb(32.133484%, 73.434448%, 49.568176%)" offset="0.660156"/><stop stop-opacity="1" stop-color="rgb(32.545471%, 73.497009%, 49.003601%)" offset="0.664062"/><stop stop-opacity="1" stop-color="rgb(32.957458%, 73.558044%, 48.4375%)" offset="0.667969"/><stop stop-opacity="1" stop-color="rgb(33.369446%, 73.620605%, 47.871399%)" offset="0.671875"/><stop stop-opacity="1" stop-color="rgb(33.781433%, 73.681641%, 47.305298%)" offset="0.675781"/><stop stop-opacity="1" stop-color="rgb(34.19342%, 73.744202%, 46.739197%)" offset="0.679687"/><stop stop-opacity="1" stop-color="rgb(34.605408%, 73.806763%, 46.173096%)" offset="0.683594"/><stop stop-opacity="1" stop-color="rgb(35.017395%, 73.869324%, 45.608521%)" offset="0.6875"/><stop stop-opacity="1" stop-color="rgb(35.429382%, 73.930359%, 45.042419%)" offset="0.691406"/><stop stop-opacity="1" stop-color="rgb(35.84137%, 73.99292%, 44.476318%)" offset="0.695312"/><stop stop-opacity="1" stop-color="rgb(36.253357%, 74.053955%, 43.910217%)" offset="0.699219"/><stop stop-opacity="1" stop-color="rgb(36.665344%, 74.116516%, 43.345642%)" offset="0.703125"/><stop stop-opacity="1" stop-color="rgb(37.077332%, 74.177551%, 42.779541%)" offset="0.707031"/><stop stop-opacity="1" stop-color="rgb(37.489319%, 74.240112%, 42.21344%)" offset="0.710938"/><stop stop-opacity="1" stop-color="rgb(37.901306%, 74.302673%, 41.647339%)" offset="0.714844"/><stop stop-opacity="1" stop-color="rgb(38.313293%, 74.365234%, 41.081238%)" offset="0.71875"/><stop stop-opacity="1" stop-color="rgb(38.725281%, 74.42627%, 40.515137%)" offset="0.722656"/><stop stop-opacity="1" stop-color="rgb(39.137268%, 74.488831%, 39.950562%)" offset="0.726562"/><stop stop-opacity="1" stop-color="rgb(39.549255%, 74.549866%, 39.38446%)" offset="0.730469"/><stop stop-opacity="1" stop-color="rgb(39.961243%, 74.612427%, 38.818359%)" offset="0.734375"/><stop stop-opacity="1" stop-color="rgb(40.37323%, 74.673462%, 38.252258%)" offset="0.738281"/><stop stop-opacity="1" stop-color="rgb(40.785217%, 74.736023%, 37.687683%)" offset="0.742188"/><stop stop-opacity="1" stop-color="rgb(41.197205%, 74.798584%, 37.121582%)" offset="0.746094"/><stop stop-opacity="1" stop-color="rgb(41.609192%, 74.861145%, 36.555481%)" offset="0.75"/><stop stop-opacity="1" stop-color="rgb(42.021179%, 74.92218%, 35.98938%)" offset="0.753906"/><stop stop-opacity="1" stop-color="rgb(42.433167%, 74.984741%, 35.424805%)" offset="0.757812"/><stop stop-opacity="1" stop-color="rgb(42.845154%, 75.045776%, 34.858704%)" offset="0.761719"/><stop stop-opacity="1" stop-color="rgb(43.257141%, 75.108337%, 34.292603%)" offset="0.765625"/><stop stop-opacity="1" stop-color="rgb(43.669128%, 75.169373%, 33.726501%)" offset="0.769531"/><stop stop-opacity="1" stop-color="rgb(44.081116%, 75.231934%, 33.1604%)" offset="0.773438"/><stop stop-opacity="1" stop-color="rgb(44.493103%, 75.294495%, 32.594299%)" offset="0.777344"/><stop stop-opacity="1" stop-color="rgb(44.90509%, 75.357056%, 32.029724%)" offset="0.78125"/><stop stop-opacity="1" stop-color="rgb(45.317078%, 75.418091%, 31.463623%)" offset="0.785156"/><stop stop-opacity="1" stop-color="rgb(45.729065%, 75.480652%, 30.897522%)" offset="0.789062"/><stop stop-opacity="1" stop-color="rgb(46.141052%, 75.541687%, 30.331421%)" offset="0.792969"/><stop stop-opacity="1" stop-color="rgb(46.55304%, 75.604248%, 29.766846%)" offset="0.796875"/><stop stop-opacity="1" stop-color="rgb(46.965027%, 75.665283%, 29.200745%)" offset="0.800781"/><stop stop-opacity="1" stop-color="rgb(47.377014%, 75.727844%, 28.634644%)" offset="0.804688"/><stop stop-opacity="1" stop-color="rgb(47.789001%, 75.790405%, 28.068542%)" offset="0.808594"/><stop stop-opacity="1" stop-color="rgb(48.200989%, 75.852966%, 27.502441%)" offset="0.8125"/><stop stop-opacity="1" stop-color="rgb(48.612976%, 75.914001%, 26.93634%)" offset="0.816406"/><stop stop-opacity="1" stop-color="rgb(49.024963%, 75.976562%, 26.371765%)" offset="0.820312"/><stop stop-opacity="1" stop-color="rgb(49.436951%, 76.037598%, 25.805664%)" offset="0.824219"/><stop stop-opacity="1" stop-color="rgb(49.848938%, 76.100159%, 25.239563%)" offset="0.828125"/><stop stop-opacity="1" stop-color="rgb(50.259399%, 76.161194%, 24.673462%)" offset="0.832031"/><stop stop-opacity="1" stop-color="rgb(50.671387%, 76.223755%, 24.108887%)" offset="0.835937"/><stop stop-opacity="1" stop-color="rgb(51.083374%, 76.286316%, 23.542786%)" offset="0.839844"/><stop stop-opacity="1" stop-color="rgb(51.495361%, 76.348877%, 22.976685%)" offset="0.84375"/><stop stop-opacity="1" stop-color="rgb(51.907349%, 76.409912%, 22.410583%)" offset="0.847656"/><stop stop-opacity="1" stop-color="rgb(52.319336%, 76.472473%, 21.846008%)" offset="0.851562"/><stop stop-opacity="1" stop-color="rgb(52.409363%, 76.486206%, 21.722412%)" offset="0.859375"/><stop stop-opacity="1" stop-color="rgb(52.49939%, 76.499939%, 21.598816%)" offset="0.875"/><stop stop-opacity="1" stop-color="rgb(52.49939%, 76.499939%, 21.598816%)" offset="1"/></linearGradient><clipPath id="3861404bc0"><path d="M 144 30.941406 L 259 30.941406 L 259 130 L 144 130 Z M 144 30.941406 " clip-rule="nonzero"/></clipPath><clipPath id="3edd2a5c11"><path d="M 213.488281 83.453125 L 220.992188 70.429688 L 228.496094 57.402344 L 235.996094 44.375 L 220.988281 44.375 L 217.238281 50.890625 L 211.882812 60.183594 L 209.734375 63.914062 L 202.230469 76.9375 L 194.535156 90.292969 L 194.078125 91.089844 L 186.84375 103.652344 L 179.339844 90.625 L 179.496094 90.351562 L 159.636719 56.988281 L 144.628906 30.933594 L 159.636719 30.933594 L 167.140625 43.960938 L 186.9375 77.4375 L 187.226562 76.9375 L 194.730469 63.910156 L 202.234375 50.886719 L 205.984375 44.375 L 209.734375 37.859375 L 213.488281 31.347656 L 258.511719 31.347656 L 251.007812 44.375 L 243.503906 57.398438 L 238.148438 66.695312 L 236 70.421875 L 228.496094 83.449219 L 206.957031 120.839844 L 201.851562 129.699219 L 194.347656 116.671875 C 202.257812 102.945312 205.582031 97.171875 213.492188 83.445312 Z M 213.488281 83.453125 " clip-rule="evenodd"/></clipPath><linearGradient x1="0.923832" gradientTransform="matrix(113.881451, 0, 0, 98.764852, 144.629304, 30.935059)" y1="1.028824" x2="0.467551" gradientUnits="userSpaceOnUse" y2="-0.176885" id="1165fd0d34"><stop stop-opacity="1" stop-color="rgb(0%, 68.598938%, 93.699646%)" offset="0"/><stop stop-opacity="1" stop-color="rgb(0%, 68.598938%, 93.699646%)" offset="0.25"/><stop stop-opacity="1" stop-color="rgb(0%, 68.598938%, 93.699646%)" offset="0.27455"/><stop stop-opacity="1" stop-color="rgb(0%, 68.598938%, 93.699646%)" offset="0.3125"/><stop stop-opacity="1" stop-color="rgb(0%, 68.598938%, 93.699646%)" offset="0.34375"/><stop stop-opacity="1" stop-color="rgb(0%, 68.598938%, 93.699646%)" offset="0.351563"/><stop stop-opacity="1" stop-color="rgb(0.204468%, 68.629456%, 93.417358%)" offset="0.355469"/><stop stop-opacity="1" stop-color="rgb(0.408936%, 68.661499%, 93.136597%)" offset="0.359375"/><stop stop-opacity="1" stop-color="rgb(0.820923%, 68.722534%, 92.570496%)" offset="0.363281"/><stop stop-opacity="1" stop-color="rgb(1.23291%, 68.785095%, 92.004395%)" offset="0.367188"/><stop stop-opacity="1" stop-color="rgb(1.644897%, 68.84613%, 91.438293%)" offset="0.371094"/><stop stop-opacity="1" stop-color="rgb(2.056885%, 68.908691%, 90.873718%)" offset="0.375"/><stop stop-opacity="1" stop-color="rgb(2.468872%, 68.969727%, 90.307617%)" offset="0.378906"/><stop stop-opacity="1" stop-color="rgb(2.880859%, 69.032288%, 89.741516%)" offset="0.382813"/><stop stop-opacity="1" stop-color="rgb(3.292847%, 69.094849%, 89.175415%)" offset="0.386719"/><stop stop-opacity="1" stop-color="rgb(3.704834%, 69.15741%, 88.609314%)" offset="0.390625"/><stop stop-opacity="1" stop-color="rgb(4.116821%, 69.218445%, 88.043213%)" offset="0.394531"/><stop stop-opacity="1" stop-color="rgb(4.528809%, 69.281006%, 87.478638%)" offset="0.398438"/><stop stop-opacity="1" stop-color="rgb(4.940796%, 69.342041%, 86.912537%)" offset="0.402344"/><stop stop-opacity="1" stop-color="rgb(5.352783%, 69.404602%, 86.346436%)" offset="0.40625"/><stop stop-opacity="1" stop-color="rgb(5.764771%, 69.465637%, 85.780334%)" offset="0.410156"/><stop stop-opacity="1" stop-color="rgb(6.176758%, 69.528198%, 85.215759%)" offset="0.414063"/><stop stop-opacity="1" stop-color="rgb(6.588745%, 69.590759%, 84.649658%)" offset="0.417969"/><stop stop-opacity="1" stop-color="rgb(7.000732%, 69.65332%, 84.083557%)" offset="0.421875"/><stop stop-opacity="1" stop-color="rgb(7.41272%, 69.714355%, 83.517456%)" offset="0.425781"/><stop stop-opacity="1" stop-color="rgb(7.824707%, 69.776917%, 82.952881%)" offset="0.429688"/><stop stop-opacity="1" stop-color="rgb(8.236694%, 69.837952%, 82.38678%)" offset="0.433594"/><stop stop-opacity="1" stop-color="rgb(8.648682%, 69.900513%, 81.820679%)" offset="0.4375"/><stop stop-opacity="1" stop-color="rgb(9.060669%, 69.961548%, 81.254578%)" offset="0.441406"/><stop stop-opacity="1" stop-color="rgb(9.472656%, 70.024109%, 80.690002%)" offset="0.445313"/><stop stop-opacity="1" stop-color="rgb(9.884644%, 70.08667%, 80.123901%)" offset="0.449219"/><stop stop-opacity="1" stop-color="rgb(10.296631%, 70.149231%, 79.5578%)" offset="0.453125"/><stop stop-opacity="1" stop-color="rgb(10.708618%, 70.210266%, 78.991699%)" offset="0.457031"/><stop stop-opacity="1" stop-color="rgb(11.120605%, 70.272827%, 78.425598%)" offset="0.460938"/><stop stop-opacity="1" stop-color="rgb(11.532593%, 70.333862%, 77.859497%)" offset="0.464844"/><stop stop-opacity="1" stop-color="rgb(11.94458%, 70.396423%, 77.294922%)" offset="0.46875"/><stop stop-opacity="1" stop-color="rgb(12.356567%, 70.457458%, 76.728821%)" offset="0.472656"/><stop stop-opacity="1" stop-color="rgb(12.768555%, 70.52002%, 76.16272%)" offset="0.476563"/><stop stop-opacity="1" stop-color="rgb(13.180542%, 70.582581%, 75.596619%)" offset="0.480469"/><stop stop-opacity="1" stop-color="rgb(13.592529%, 70.645142%, 75.032043%)" offset="0.484375"/><stop stop-opacity="1" stop-color="rgb(14.004517%, 70.706177%, 74.465942%)" offset="0.488281"/><stop stop-opacity="1" stop-color="rgb(14.416504%, 70.768738%, 73.899841%)" offset="0.492188"/><stop stop-opacity="1" stop-color="rgb(14.828491%, 70.829773%, 73.33374%)" offset="0.496094"/><stop stop-opacity="1" stop-color="rgb(15.240479%, 70.892334%, 72.769165%)" offset="0.5"/><stop stop-opacity="1" stop-color="rgb(15.652466%, 70.953369%, 72.203064%)" offset="0.503906"/><stop stop-opacity="1" stop-color="rgb(16.064453%, 71.01593%, 71.636963%)" offset="0.507813"/><stop stop-opacity="1" stop-color="rgb(16.47644%, 71.078491%, 71.070862%)" offset="0.511719"/><stop stop-opacity="1" stop-color="rgb(16.888428%, 71.141052%, 70.506287%)" offset="0.515625"/><stop stop-opacity="1" stop-color="rgb(17.300415%, 71.202087%, 69.940186%)" offset="0.519531"/><stop stop-opacity="1" stop-color="rgb(17.712402%, 71.264648%, 69.374084%)" offset="0.523438"/><stop stop-opacity="1" stop-color="rgb(18.12439%, 71.325684%, 68.807983%)" offset="0.527344"/><stop stop-opacity="1" stop-color="rgb(18.536377%, 71.388245%, 68.241882%)" offset="0.53125"/><stop stop-opacity="1" stop-color="rgb(18.946838%, 71.44928%, 67.675781%)" offset="0.535156"/><stop stop-opacity="1" stop-color="rgb(19.358826%, 71.511841%, 67.111206%)" offset="0.539063"/><stop stop-opacity="1" stop-color="rgb(19.770813%, 71.574402%, 66.545105%)" offset="0.542969"/><stop stop-opacity="1" stop-color="rgb(20.1828%, 71.636963%, 65.979004%)" offset="0.546875"/><stop stop-opacity="1" stop-color="rgb(20.594788%, 71.697998%, 65.412903%)" offset="0.550781"/><stop stop-opacity="1" stop-color="rgb(21.006775%, 71.760559%, 64.848328%)" offset="0.554688"/><stop stop-opacity="1" stop-color="rgb(21.418762%, 71.821594%, 64.282227%)" offset="0.558594"/><stop stop-opacity="1" stop-color="rgb(21.83075%, 71.884155%, 63.716125%)" offset="0.5625"/><stop stop-opacity="1" stop-color="rgb(22.242737%, 71.94519%, 63.150024%)" offset="0.566406"/><stop stop-opacity="1" stop-color="rgb(22.654724%, 72.007751%, 62.585449%)" offset="0.570312"/><stop stop-opacity="1" stop-color="rgb(23.066711%, 72.070312%, 62.019348%)" offset="0.574219"/><stop stop-opacity="1" stop-color="rgb(23.478699%, 72.132874%, 61.453247%)" offset="0.578125"/><stop stop-opacity="1" stop-color="rgb(23.890686%, 72.193909%, 60.887146%)" offset="0.582031"/><stop stop-opacity="1" stop-color="rgb(24.302673%, 72.25647%, 60.322571%)" offset="0.585938"/><stop stop-opacity="1" stop-color="rgb(24.714661%, 72.317505%, 59.75647%)" offset="0.589844"/><stop stop-opacity="1" stop-color="rgb(25.126648%, 72.380066%, 59.190369%)" offset="0.59375"/><stop stop-opacity="1" stop-color="rgb(25.538635%, 72.441101%, 58.624268%)" offset="0.597656"/><stop stop-opacity="1" stop-color="rgb(25.950623%, 72.503662%, 58.058167%)" offset="0.601562"/><stop stop-opacity="1" stop-color="rgb(26.36261%, 72.566223%, 57.492065%)" offset="0.605469"/><stop stop-opacity="1" stop-color="rgb(26.774597%, 72.628784%, 56.92749%)" offset="0.609375"/><stop stop-opacity="1" stop-color="rgb(27.186584%, 72.689819%, 56.361389%)" offset="0.613281"/><stop stop-opacity="1" stop-color="rgb(27.598572%, 72.75238%, 55.795288%)" offset="0.617188"/><stop stop-opacity="1" stop-color="rgb(28.010559%, 72.813416%, 55.229187%)" offset="0.621094"/><stop stop-opacity="1" stop-color="rgb(28.422546%, 72.875977%, 54.664612%)" offset="0.625"/><stop stop-opacity="1" stop-color="rgb(28.834534%, 72.937012%, 54.098511%)" offset="0.628906"/><stop stop-opacity="1" stop-color="rgb(29.246521%, 72.999573%, 53.53241%)" offset="0.632813"/><stop stop-opacity="1" stop-color="rgb(29.658508%, 73.062134%, 52.966309%)" offset="0.636719"/><stop stop-opacity="1" stop-color="rgb(30.070496%, 73.124695%, 52.401733%)" offset="0.640625"/><stop stop-opacity="1" stop-color="rgb(30.482483%, 73.18573%, 51.835632%)" offset="0.644531"/><stop stop-opacity="1" stop-color="rgb(30.89447%, 73.248291%, 51.269531%)" offset="0.648438"/><stop stop-opacity="1" stop-color="rgb(31.306458%, 73.309326%, 50.70343%)" offset="0.652344"/><stop stop-opacity="1" stop-color="rgb(31.718445%, 73.371887%, 50.138855%)" offset="0.65625"/><stop stop-opacity="1" stop-color="rgb(32.130432%, 73.432922%, 49.572754%)" offset="0.660156"/><stop stop-opacity="1" stop-color="rgb(32.542419%, 73.495483%, 49.006653%)" offset="0.664063"/><stop stop-opacity="1" stop-color="rgb(32.954407%, 73.558044%, 48.440552%)" offset="0.667969"/><stop stop-opacity="1" stop-color="rgb(33.366394%, 73.620605%, 47.874451%)" offset="0.671875"/><stop stop-opacity="1" stop-color="rgb(33.778381%, 73.681641%, 47.30835%)" offset="0.675781"/><stop stop-opacity="1" stop-color="rgb(34.190369%, 73.744202%, 46.743774%)" offset="0.679688"/><stop stop-opacity="1" stop-color="rgb(34.602356%, 73.805237%, 46.177673%)" offset="0.683594"/><stop stop-opacity="1" stop-color="rgb(35.014343%, 73.867798%, 45.611572%)" offset="0.6875"/><stop stop-opacity="1" stop-color="rgb(35.426331%, 73.928833%, 45.045471%)" offset="0.691406"/><stop stop-opacity="1" stop-color="rgb(35.838318%, 73.991394%, 44.480896%)" offset="0.695313"/><stop stop-opacity="1" stop-color="rgb(36.250305%, 74.053955%, 43.914795%)" offset="0.699219"/><stop stop-opacity="1" stop-color="rgb(36.662292%, 74.116516%, 43.348694%)" offset="0.703125"/><stop stop-opacity="1" stop-color="rgb(37.07428%, 74.177551%, 42.782593%)" offset="0.707031"/><stop stop-opacity="1" stop-color="rgb(37.486267%, 74.240112%, 42.218018%)" offset="0.710938"/><stop stop-opacity="1" stop-color="rgb(37.898254%, 74.301147%, 41.651917%)" offset="0.714844"/><stop stop-opacity="1" stop-color="rgb(38.310242%, 74.363708%, 41.085815%)" offset="0.71875"/><stop stop-opacity="1" stop-color="rgb(38.722229%, 74.424744%, 40.519714%)" offset="0.722656"/><stop stop-opacity="1" stop-color="rgb(39.134216%, 74.487305%, 39.955139%)" offset="0.726563"/><stop stop-opacity="1" stop-color="rgb(39.546204%, 74.549866%, 39.389038%)" offset="0.730469"/><stop stop-opacity="1" stop-color="rgb(39.958191%, 74.612427%, 38.822937%)" offset="0.734375"/><stop stop-opacity="1" stop-color="rgb(40.370178%, 74.673462%, 38.256836%)" offset="0.738281"/><stop stop-opacity="1" stop-color="rgb(40.782166%, 74.736023%, 37.690735%)" offset="0.742188"/><stop stop-opacity="1" stop-color="rgb(41.194153%, 74.797058%, 37.124634%)" offset="0.746094"/><stop stop-opacity="1" stop-color="rgb(41.60614%, 74.859619%, 36.560059%)" offset="0.75"/><stop stop-opacity="1" stop-color="rgb(42.018127%, 74.92218%, 35.993958%)" offset="0.753906"/><stop stop-opacity="1" stop-color="rgb(42.430115%, 74.984741%, 35.427856%)" offset="0.757813"/><stop stop-opacity="1" stop-color="rgb(42.842102%, 75.045776%, 34.861755%)" offset="0.761719"/><stop stop-opacity="1" stop-color="rgb(43.254089%, 75.108337%, 34.29718%)" offset="0.765625"/><stop stop-opacity="1" stop-color="rgb(43.666077%, 75.169373%, 33.731079%)" offset="0.769531"/><stop stop-opacity="1" stop-color="rgb(44.078064%, 75.231934%, 33.164978%)" offset="0.773438"/><stop stop-opacity="1" stop-color="rgb(44.490051%, 75.292969%, 32.598877%)" offset="0.777344"/><stop stop-opacity="1" stop-color="rgb(44.902039%, 75.35553%, 32.034302%)" offset="0.78125"/><stop stop-opacity="1" stop-color="rgb(45.3125%, 75.418091%, 31.468201%)" offset="0.785156"/><stop stop-opacity="1" stop-color="rgb(45.724487%, 75.480652%, 30.9021%)" offset="0.789063"/><stop stop-opacity="1" stop-color="rgb(46.136475%, 75.541687%, 30.335999%)" offset="0.792969"/><stop stop-opacity="1" stop-color="rgb(46.548462%, 75.604248%, 29.771423%)" offset="0.796875"/><stop stop-opacity="1" stop-color="rgb(46.960449%, 75.665283%, 29.205322%)" offset="0.800781"/><stop stop-opacity="1" stop-color="rgb(47.372437%, 75.727844%, 28.639221%)" offset="0.804688"/><stop stop-opacity="1" stop-color="rgb(47.784424%, 75.788879%, 28.07312%)" offset="0.808594"/><stop stop-opacity="1" stop-color="rgb(48.196411%, 75.85144%, 27.507019%)" offset="0.8125"/><stop stop-opacity="1" stop-color="rgb(48.608398%, 75.914001%, 26.940918%)" offset="0.816406"/><stop stop-opacity="1" stop-color="rgb(49.020386%, 75.976562%, 26.376343%)" offset="0.820312"/><stop stop-opacity="1" stop-color="rgb(49.432373%, 76.037598%, 25.810242%)" offset="0.824219"/><stop stop-opacity="1" stop-color="rgb(49.84436%, 76.100159%, 25.244141%)" offset="0.828125"/><stop stop-opacity="1" stop-color="rgb(50.256348%, 76.161194%, 24.67804%)" offset="0.832031"/><stop stop-opacity="1" stop-color="rgb(50.668335%, 76.223755%, 24.113464%)" offset="0.835938"/><stop stop-opacity="1" stop-color="rgb(51.080322%, 76.28479%, 23.547363%)" offset="0.839844"/><stop stop-opacity="1" stop-color="rgb(51.49231%, 76.347351%, 22.981262%)" offset="0.84375"/><stop stop-opacity="1" stop-color="rgb(51.904297%, 76.409912%, 22.415161%)" offset="0.847656"/><stop stop-opacity="1" stop-color="rgb(52.316284%, 76.472473%, 21.850586%)" offset="0.851562"/><stop stop-opacity="1" stop-color="rgb(52.407837%, 76.486206%, 21.723938%)" offset="0.859375"/><stop stop-opacity="1" stop-color="rgb(52.49939%, 76.499939%, 21.598816%)" offset="0.875"/><stop stop-opacity="1" stop-color="rgb(52.49939%, 76.499939%, 21.598816%)" offset="1"/></linearGradient></defs><g clip-path="url(#62a723769b)"><g clip-path="url(#e5dd45b715)"><path fill="url(#ba168a0592)" d="M 86.203125 31.351562 L 86.203125 180.941406 L 288.566406 180.941406 L 288.566406 31.351562 Z M 86.203125 31.351562 " fill-rule="nonzero"/></g></g><g clip-path="url(#3861404bc0)"><g clip-path="url(#3edd2a5c11)"><path fill="url(#1165fd0d34)" d="M 144.628906 30.941406 L 144.628906 129.699219 L 258.511719 129.699219 L 258.511719 30.941406 Z M 144.628906 30.941406 " fill-rule="nonzero"/></g></g><g fill="#f8fdff" fill-opacity="1"><g transform="translate(15.016769, 254.249338)"><g><path d="M 22.34375 0 C 21.25 0 20.671875 -0.507812 20.609375 -1.53125 L 9.1875 -69.359375 L 9.1875 -69.765625 C 9.1875 -70.859375 9.757812 -71.40625 10.90625 -71.40625 L 24.890625 -71.40625 C 25.972656 -71.40625 26.550781 -70.859375 26.625 -69.765625 L 32.328125 -24.484375 C 32.398438 -24.210938 32.519531 -24.078125 32.6875 -24.078125 C 32.863281 -24.078125 32.984375 -24.210938 33.046875 -24.484375 L 49.671875 -69.765625 C 50.078125 -70.859375 50.789062 -71.40625 51.8125 -71.40625 L 65.484375 -71.40625 C 66.429688 -71.40625 66.90625 -71.03125 66.90625 -70.28125 C 66.90625 -70.070312 66.835938 -69.765625 66.703125 -69.359375 L 38.453125 -1.53125 C 38.109375 -0.507812 37.359375 0 36.203125 0 Z M 22.34375 0 "/></g></g></g><g fill="#f8fdff" fill-opacity="1"><g transform="translate(77.746731, 254.249338)"><g><path d="M 38.046875 -50.890625 C 38.109375 -51.441406 38.3125 -51.882812 38.65625 -52.21875 C 39 -52.5625 39.441406 -52.734375 39.984375 -52.734375 L 52.84375 -52.734375 C 53.382812 -52.734375 53.804688 -52.5625 54.109375 -52.21875 C 54.410156 -51.882812 54.53125 -51.441406 54.46875 -50.890625 L 48.453125 -1.84375 C 48.242188 -0.613281 47.5625 0 46.40625 0 L 33.5625 0 C 33.007812 0 32.597656 -0.164062 32.328125 -0.5 C 32.054688 -0.84375 31.957031 -1.289062 32.03125 -1.84375 L 32.328125 -4.390625 C 32.328125 -4.722656 32.257812 -4.921875 32.125 -4.984375 C 31.988281 -5.054688 31.785156 -4.957031 31.515625 -4.6875 C 28.390625 -1.019531 24.070312 0.8125 18.5625 0.8125 C 14.070312 0.8125 10.5 -0.492188 7.84375 -3.109375 C 5.195312 -5.722656 3.875 -9.445312 3.875 -14.28125 C 3.875 -15.78125 3.941406 -16.9375 4.078125 -17.75 L 8.15625 -50.890625 C 8.226562 -51.441406 8.429688 -51.882812 8.765625 -52.21875 C 9.109375 -52.5625 9.550781 -52.734375 10.09375 -52.734375 L 22.953125 -52.734375 C 23.492188 -52.734375 23.914062 -52.5625 24.21875 -52.21875 C 24.53125 -51.882812 24.648438 -51.441406 24.578125 -50.890625 L 20.90625 -21.625 L 20.8125 -20.296875 C 20.8125 -18.253906 21.320312 -16.65625 22.34375 -15.5 C 23.363281 -14.34375 24.789062 -13.765625 26.625 -13.765625 C 28.457031 -13.765625 30.050781 -14.34375 31.40625 -15.5 C 32.769531 -16.65625 33.722656 -18.1875 34.265625 -20.09375 Z M 38.046875 -50.890625 "/></g></g></g><g fill="#f8fdff" fill-opacity="1"><g transform="translate(132.112698, 254.249338)"><g><path d="M 38.765625 -41 C 38.691406 -40.457031 38.46875 -40.015625 38.09375 -39.671875 C 37.71875 -39.335938 37.257812 -39.171875 36.71875 -39.171875 L 28.5625 -39.171875 C 28.15625 -39.171875 27.882812 -38.929688 27.75 -38.453125 L 25.609375 -20.609375 C 25.535156 -20.191406 25.5 -19.644531 25.5 -18.96875 C 25.5 -16.1875 26.789062 -14.796875 29.375 -14.796875 L 32.53125 -14.796875 C 33.082031 -14.796875 33.492188 -14.625 33.765625 -14.28125 C 34.035156 -13.9375 34.132812 -13.492188 34.0625 -12.953125 L 32.734375 -2.25 C 32.671875 -1.15625 32.023438 -0.539062 30.796875 -0.40625 C 27.804688 -0.269531 25.664062 -0.203125 24.375 -0.203125 C 19.144531 -0.203125 15.234375 -0.96875 12.640625 -2.5 C 10.054688 -4.03125 8.765625 -6.867188 8.765625 -11.015625 C 8.765625 -11.554688 8.832031 -12.441406 8.96875 -13.671875 L 12.03125 -38.453125 L 12.03125 -38.65625 C 12.03125 -39 11.828125 -39.171875 11.421875 -39.171875 L 6.625 -39.171875 C 6.082031 -39.171875 5.65625 -39.335938 5.34375 -39.671875 C 5.039062 -40.015625 4.925781 -40.457031 5 -41 L 6.21875 -50.890625 C 6.425781 -52.117188 7.109375 -52.734375 8.265625 -52.734375 L 13.0625 -52.734375 C 13.257812 -52.734375 13.441406 -52.800781 13.609375 -52.9375 C 13.785156 -53.070312 13.875 -53.242188 13.875 -53.453125 L 15.296875 -64.96875 C 15.367188 -65.519531 15.59375 -65.960938 15.96875 -66.296875 C 16.34375 -66.640625 16.800781 -66.8125 17.34375 -66.8125 L 29.484375 -66.8125 C 30.023438 -66.8125 30.429688 -66.640625 30.703125 -66.296875 C 30.972656 -65.960938 31.078125 -65.519531 31.015625 -64.96875 L 29.578125 -53.453125 C 29.578125 -52.972656 29.78125 -52.734375 30.1875 -52.734375 L 38.453125 -52.734375 C 38.992188 -52.734375 39.398438 -52.5625 39.671875 -52.21875 C 39.953125 -51.882812 40.054688 -51.441406 39.984375 -50.890625 Z M 38.765625 -41 "/></g></g></g><g fill="#f8fdff" fill-opacity="1"><g transform="translate(170.260671, 254.249338)"><g><path d="M 25.5 0.8125 C 19.582031 0.8125 14.753906 -0.816406 11.015625 -4.078125 C 7.273438 -7.335938 5.03125 -11.757812 4.28125 -17.34375 C 4.082031 -18.769531 3.984375 -20.226562 3.984375 -21.71875 C 3.984375 -23.289062 4.082031 -24.890625 4.28125 -26.515625 C 4.6875 -29.785156 5.503906 -33.082031 6.734375 -36.40625 C 8.972656 -41.78125 12.335938 -45.976562 16.828125 -49 C 21.316406 -52.03125 26.484375 -53.546875 32.328125 -53.546875 C 38.109375 -53.546875 42.832031 -52.03125 46.5 -49 C 50.175781 -45.976562 52.457031 -41.816406 53.34375 -36.515625 C 53.613281 -34.953125 53.75 -33.117188 53.75 -31.015625 C 53.75 -29.109375 53.679688 -27.675781 53.546875 -26.71875 C 53.140625 -23.320312 52.394531 -20.332031 51.3125 -17.75 C 49.269531 -12.039062 45.96875 -7.519531 41.40625 -4.1875 C 36.851562 -0.851562 31.550781 0.8125 25.5 0.8125 Z M 27.34375 -13.671875 C 29.238281 -13.671875 30.898438 -14.296875 32.328125 -15.546875 C 33.753906 -16.804688 34.878906 -18.523438 35.703125 -20.703125 C 36.242188 -22.203125 36.6875 -24.140625 37.03125 -26.515625 C 37.164062 -28.015625 37.234375 -29.070312 37.234375 -29.6875 C 37.234375 -32.601562 36.671875 -34.894531 35.546875 -36.5625 C 34.421875 -38.226562 32.703125 -39.0625 30.390625 -39.0625 C 26.515625 -39.0625 23.796875 -36.851562 22.234375 -32.4375 C 21.484375 -30.738281 21.007812 -28.765625 20.8125 -26.515625 C 20.601562 -25.222656 20.5 -23.96875 20.5 -22.75 C 20.5 -20.03125 21.078125 -17.835938 22.234375 -16.171875 C 23.390625 -14.503906 25.09375 -13.671875 27.34375 -13.671875 Z M 27.34375 -13.671875 "/></g></g></g><g fill="#f8fdff" fill-opacity="1"><g transform="translate(225.442636, 254.249338)"><g><path d="M 67.53125 -53.546875 C 72.144531 -53.546875 75.691406 -52.238281 78.171875 -49.625 C 80.660156 -47.007812 81.90625 -43.320312 81.90625 -38.5625 C 81.90625 -36.925781 81.835938 -35.703125 81.703125 -34.890625 L 77.625 -1.84375 C 77.414062 -0.613281 76.734375 0 75.578125 0 L 62.828125 0 C 62.285156 0 61.878906 -0.164062 61.609375 -0.5 C 61.335938 -0.84375 61.234375 -1.289062 61.296875 -1.84375 L 64.875 -31.21875 C 64.9375 -31.550781 64.96875 -32.054688 64.96875 -32.734375 C 64.96875 -34.640625 64.472656 -36.171875 63.484375 -37.328125 C 62.503906 -38.484375 61.164062 -39.0625 59.46875 -39.0625 C 57.5625 -39.0625 55.910156 -38.347656 54.515625 -36.921875 C 53.117188 -35.492188 52.285156 -33.59375 52.015625 -31.21875 L 48.453125 -1.84375 C 48.242188 -0.613281 47.5625 0 46.40625 0 L 33.5625 0 C 33.007812 0 32.597656 -0.164062 32.328125 -0.5 C 32.054688 -0.84375 31.957031 -1.289062 32.03125 -1.84375 L 35.59375 -31.21875 C 35.664062 -31.550781 35.703125 -32.023438 35.703125 -32.640625 C 35.703125 -34.609375 35.171875 -36.171875 34.109375 -37.328125 C 33.054688 -38.484375 31.679688 -39.0625 29.984375 -39.0625 C 28.222656 -39.0625 26.675781 -38.484375 25.34375 -37.328125 C 24.019531 -36.171875 23.117188 -34.640625 22.640625 -32.734375 L 18.875 -1.84375 C 18.664062 -0.613281 17.984375 0 16.828125 0 L 3.984375 0 C 3.429688 0 3.019531 -0.164062 2.75 -0.5 C 2.476562 -0.84375 2.378906 -1.289062 2.453125 -1.84375 L 8.46875 -50.890625 C 8.53125 -51.441406 8.734375 -51.882812 9.078125 -52.21875 C 9.421875 -52.5625 9.863281 -52.734375 10.40625 -52.734375 L 23.25 -52.734375 C 23.800781 -52.734375 24.226562 -52.5625 24.53125 -52.21875 C 24.832031 -51.882812 24.953125 -51.441406 24.890625 -50.890625 L 24.375 -47.328125 L 24.375 -47.125 C 24.375 -46.851562 24.457031 -46.71875 24.625 -46.71875 C 24.800781 -46.71875 24.988281 -46.851562 25.1875 -47.125 C 28.25 -51.40625 32.671875 -53.546875 38.453125 -53.546875 C 41.710938 -53.546875 44.484375 -52.8125 46.765625 -51.34375 C 49.046875 -49.882812 50.695312 -47.765625 51.71875 -44.984375 C 51.78125 -44.710938 51.894531 -44.59375 52.0625 -44.625 C 52.238281 -44.65625 52.425781 -44.804688 52.625 -45.078125 C 56.03125 -50.722656 61 -53.546875 67.53125 -53.546875 Z M 67.53125 -53.546875 "/></g></g></g><g fill="#f8fdff" fill-opacity="1"><g transform="translate(308.572582, 254.249338)"><g><path d="M 0.203125 20.296875 C -0.273438 20.296875 -0.445312 19.6875 -0.3125 18.46875 L 0.921875 8.265625 C 0.984375 7.722656 1.097656 7.28125 1.265625 6.9375 C 1.441406 6.59375 1.597656 6.421875 1.734375 6.421875 L 2.25 6.421875 C 6.457031 6.421875 9.515625 6.046875 11.421875 5.296875 C 13.328125 4.554688 14.65625 2.960938 15.40625 0.515625 C 15.46875 0.242188 15.5 -0.0625 15.5 -0.40625 L 6.015625 -50.6875 L 6.015625 -51.109375 C 6.015625 -52.191406 6.5625 -52.734375 7.65625 -52.734375 L 21.515625 -52.734375 C 22.066406 -52.734375 22.492188 -52.578125 22.796875 -52.265625 C 23.097656 -51.960938 23.25 -51.578125 23.25 -51.109375 L 26.421875 -24.484375 C 26.617188 -23.796875 26.890625 -23.796875 27.234375 -24.484375 L 36.71875 -51.109375 C 36.851562 -51.578125 37.125 -51.960938 37.53125 -52.265625 C 37.9375 -52.578125 38.414062 -52.734375 38.96875 -52.734375 L 52.625 -52.734375 C 53.644531 -52.734375 54.15625 -52.328125 54.15625 -51.515625 L 53.953125 -50.6875 L 31.109375 1.015625 C 28.796875 6.117188 26.582031 9.976562 24.46875 12.59375 C 22.363281 15.21875 19.507812 17.15625 15.90625 18.40625 C 12.300781 19.664062 7.304688 20.296875 0.921875 20.296875 Z M 0.203125 20.296875 "/></g></g></g></svg>