<svg xmlns="http://www.w3.org/2000/svg" xmlns:xlink="http://www.w3.org/1999/xlink" width="500" zoomAndPan="magnify" viewBox="0 0 375 374.999991" height="500" preserveAspectRatio="xMidYMid meet" version="1.0"><defs><g/><clipPath id="c98b6e1b05"><path d="M 0 125 L 169.5 125 L 169.5 250.035156 L 0 250.035156 Z M 0 125 " clip-rule="nonzero"/></clipPath><clipPath id="6b5f40ec73"><path d="M 18.898438 136.003906 L 84.75 250.035156 L 72.1875 250.035156 L 0.0585938 125.128906 L 37.742188 125.128906 L 50.304688 146.878906 L 56.585938 157.757812 L 97.3125 228.28125 L 117.675781 193.019531 L 138.035156 157.757812 L 144.316406 146.878906 L 156.878906 125.128906 L 169.441406 125.128906 L 156.878906 146.878906 L 152.398438 154.644531 L 97.3125 250.035156 L 58.445312 182.734375 L 37.742188 146.878906 L 31.460938 136.003906 Z M 18.898438 136.003906 " clip-rule="evenodd"/></clipPath><linearGradient x1="0.923832" gradientTransform="matrix(169.382926, 0, 0, 124.905476, 0.058531, 125.128847)" y1="1.028824" x2="0.467533" gradientUnits="userSpaceOnUse" y2="-0.176931" id="f55f4b5878"><stop stop-opacity="1" stop-color="rgb(0%, 68.598938%, 93.699646%)" offset="0"/><stop stop-opacity="1" stop-color="rgb(0%, 68.598938%, 93.699646%)" offset="0.25"/><stop stop-opacity="1" stop-color="rgb(0%, 68.598938%, 93.699646%)" offset="0.274539"/><stop stop-opacity="1" stop-color="rgb(0%, 68.598938%, 93.699646%)" offset="0.3125"/><stop stop-opacity="1" stop-color="rgb(0%, 68.598938%, 93.699646%)" offset="0.34375"/><stop stop-opacity="1" stop-color="rgb(0%, 68.598938%, 93.699646%)" offset="0.351562"/><stop stop-opacity="1" stop-color="rgb(0.204468%, 68.629456%, 93.415833%)" offset="0.355469"/><stop stop-opacity="1" stop-color="rgb(0.410461%, 68.661499%, 93.133545%)" offset="0.359375"/><stop stop-opacity="1" stop-color="rgb(0.822449%, 68.722534%, 92.567444%)" offset="0.363281"/><stop stop-opacity="1" stop-color="rgb(1.234436%, 68.785095%, 92.002869%)" offset="0.367188"/><stop stop-opacity="1" stop-color="rgb(1.646423%, 68.84613%, 91.436768%)" offset="0.371094"/><stop stop-opacity="1" stop-color="rgb(2.058411%, 68.908691%, 90.870667%)" offset="0.375"/><stop stop-opacity="1" stop-color="rgb(2.470398%, 68.971252%, 90.304565%)" offset="0.378906"/><stop stop-opacity="1" stop-color="rgb(2.882385%, 69.033813%, 89.73999%)" offset="0.382812"/><stop stop-opacity="1" stop-color="rgb(3.294373%, 69.094849%, 89.173889%)" offset="0.386719"/><stop stop-opacity="1" stop-color="rgb(3.70636%, 69.15741%, 88.607788%)" offset="0.390625"/><stop stop-opacity="1" stop-color="rgb(4.118347%, 69.218445%, 88.041687%)" offset="0.394531"/><stop stop-opacity="1" stop-color="rgb(4.530334%, 69.281006%, 87.475586%)" offset="0.398438"/><stop stop-opacity="1" stop-color="rgb(4.942322%, 69.342041%, 86.909485%)" offset="0.402344"/><stop stop-opacity="1" stop-color="rgb(5.354309%, 69.404602%, 86.34491%)" offset="0.40625"/><stop stop-opacity="1" stop-color="rgb(5.766296%, 69.467163%, 85.778809%)" offset="0.410156"/><stop stop-opacity="1" stop-color="rgb(6.178284%, 69.529724%, 85.212708%)" offset="0.414062"/><stop stop-opacity="1" stop-color="rgb(6.590271%, 69.590759%, 84.646606%)" offset="0.417969"/><stop stop-opacity="1" stop-color="rgb(7.002258%, 69.65332%, 84.082031%)" offset="0.421875"/><stop stop-opacity="1" stop-color="rgb(7.414246%, 69.714355%, 83.51593%)" offset="0.425781"/><stop stop-opacity="1" stop-color="rgb(7.826233%, 69.776917%, 82.949829%)" offset="0.429688"/><stop stop-opacity="1" stop-color="rgb(8.23822%, 69.837952%, 82.383728%)" offset="0.433594"/><stop stop-opacity="1" stop-color="rgb(8.650208%, 69.900513%, 81.819153%)" offset="0.4375"/><stop stop-opacity="1" stop-color="rgb(9.062195%, 69.963074%, 81.253052%)" offset="0.441406"/><stop stop-opacity="1" stop-color="rgb(9.474182%, 70.025635%, 80.686951%)" offset="0.445312"/><stop stop-opacity="1" stop-color="rgb(9.886169%, 70.08667%, 80.12085%)" offset="0.449219"/><stop stop-opacity="1" stop-color="rgb(10.298157%, 70.149231%, 79.554749%)" offset="0.453125"/><stop stop-opacity="1" stop-color="rgb(10.710144%, 70.210266%, 78.988647%)" offset="0.457031"/><stop stop-opacity="1" stop-color="rgb(11.122131%, 70.272827%, 78.424072%)" offset="0.460938"/><stop stop-opacity="1" stop-color="rgb(11.534119%, 70.333862%, 77.857971%)" offset="0.464844"/><stop stop-opacity="1" stop-color="rgb(11.946106%, 70.396423%, 77.29187%)" offset="0.46875"/><stop stop-opacity="1" stop-color="rgb(12.358093%, 70.458984%, 76.725769%)" offset="0.472656"/><stop stop-opacity="1" stop-color="rgb(12.770081%, 70.521545%, 76.161194%)" offset="0.476562"/><stop stop-opacity="1" stop-color="rgb(13.182068%, 70.582581%, 75.595093%)" offset="0.480469"/><stop stop-opacity="1" stop-color="rgb(13.594055%, 70.645142%, 75.028992%)" offset="0.484375"/><stop stop-opacity="1" stop-color="rgb(14.006042%, 70.706177%, 74.462891%)" offset="0.488281"/><stop stop-opacity="1" stop-color="rgb(14.41803%, 70.768738%, 73.89679%)" offset="0.492188"/><stop stop-opacity="1" stop-color="rgb(14.830017%, 70.829773%, 73.330688%)" offset="0.496094"/><stop stop-opacity="1" stop-color="rgb(15.242004%, 70.892334%, 72.766113%)" offset="0.5"/><stop stop-opacity="1" stop-color="rgb(15.653992%, 70.954895%, 72.200012%)" offset="0.503906"/><stop stop-opacity="1" stop-color="rgb(16.065979%, 71.017456%, 71.633911%)" offset="0.507812"/><stop stop-opacity="1" stop-color="rgb(16.477966%, 71.078491%, 71.06781%)" offset="0.511719"/><stop stop-opacity="1" stop-color="rgb(16.889954%, 71.141052%, 70.503235%)" offset="0.515625"/><stop stop-opacity="1" stop-color="rgb(17.301941%, 71.202087%, 69.937134%)" offset="0.519531"/><stop stop-opacity="1" stop-color="rgb(17.713928%, 71.264648%, 69.371033%)" offset="0.523438"/><stop stop-opacity="1" stop-color="rgb(18.125916%, 71.325684%, 68.804932%)" offset="0.527344"/><stop stop-opacity="1" stop-color="rgb(18.537903%, 71.388245%, 68.240356%)" offset="0.53125"/><stop stop-opacity="1" stop-color="rgb(18.94989%, 71.450806%, 67.674255%)" offset="0.535156"/><stop stop-opacity="1" stop-color="rgb(19.361877%, 71.513367%, 67.108154%)" offset="0.539062"/><stop stop-opacity="1" stop-color="rgb(19.773865%, 71.574402%, 66.542053%)" offset="0.542969"/><stop stop-opacity="1" stop-color="rgb(20.185852%, 71.636963%, 65.975952%)" offset="0.546875"/><stop stop-opacity="1" stop-color="rgb(20.597839%, 71.697998%, 65.409851%)" offset="0.550781"/><stop stop-opacity="1" stop-color="rgb(21.009827%, 71.760559%, 64.845276%)" offset="0.554688"/><stop stop-opacity="1" stop-color="rgb(21.421814%, 71.821594%, 64.279175%)" offset="0.558594"/><stop stop-opacity="1" stop-color="rgb(21.833801%, 71.884155%, 63.713074%)" offset="0.5625"/><stop stop-opacity="1" stop-color="rgb(22.245789%, 71.946716%, 63.146973%)" offset="0.566406"/><stop stop-opacity="1" stop-color="rgb(22.657776%, 72.009277%, 62.582397%)" offset="0.570312"/><stop stop-opacity="1" stop-color="rgb(23.069763%, 72.070312%, 62.016296%)" offset="0.574219"/><stop stop-opacity="1" stop-color="rgb(23.48175%, 72.132874%, 61.450195%)" offset="0.578125"/><stop stop-opacity="1" stop-color="rgb(23.893738%, 72.193909%, 60.884094%)" offset="0.582031"/><stop stop-opacity="1" stop-color="rgb(24.305725%, 72.25647%, 60.317993%)" offset="0.585938"/><stop stop-opacity="1" stop-color="rgb(24.717712%, 72.317505%, 59.751892%)" offset="0.589844"/><stop stop-opacity="1" stop-color="rgb(25.1297%, 72.380066%, 59.187317%)" offset="0.59375"/><stop stop-opacity="1" stop-color="rgb(25.541687%, 72.442627%, 58.621216%)" offset="0.597656"/><stop stop-opacity="1" stop-color="rgb(25.953674%, 72.505188%, 58.055115%)" offset="0.601562"/><stop stop-opacity="1" stop-color="rgb(26.365662%, 72.566223%, 57.489014%)" offset="0.605469"/><stop stop-opacity="1" stop-color="rgb(26.777649%, 72.628784%, 56.924438%)" offset="0.609375"/><stop stop-opacity="1" stop-color="rgb(27.189636%, 72.689819%, 56.358337%)" offset="0.613281"/><stop stop-opacity="1" stop-color="rgb(27.601624%, 72.75238%, 55.792236%)" offset="0.617188"/><stop stop-opacity="1" stop-color="rgb(28.013611%, 72.813416%, 55.226135%)" offset="0.621094"/><stop stop-opacity="1" stop-color="rgb(28.425598%, 72.875977%, 54.66156%)" offset="0.625"/><stop stop-opacity="1" stop-color="rgb(28.837585%, 72.938538%, 54.095459%)" offset="0.628906"/><stop stop-opacity="1" stop-color="rgb(29.249573%, 73.001099%, 53.529358%)" offset="0.632812"/><stop stop-opacity="1" stop-color="rgb(29.66156%, 73.062134%, 52.963257%)" offset="0.636719"/><stop stop-opacity="1" stop-color="rgb(30.073547%, 73.124695%, 52.397156%)" offset="0.640625"/><stop stop-opacity="1" stop-color="rgb(30.485535%, 73.18573%, 51.831055%)" offset="0.644531"/><stop stop-opacity="1" stop-color="rgb(30.897522%, 73.248291%, 51.266479%)" offset="0.648437"/><stop stop-opacity="1" stop-color="rgb(31.309509%, 73.309326%, 50.700378%)" offset="0.652344"/><stop stop-opacity="1" stop-color="rgb(31.721497%, 73.371887%, 50.134277%)" offset="0.65625"/><stop stop-opacity="1" stop-color="rgb(32.133484%, 73.434448%, 49.568176%)" offset="0.660156"/><stop stop-opacity="1" stop-color="rgb(32.545471%, 73.497009%, 49.003601%)" offset="0.664062"/><stop stop-opacity="1" stop-color="rgb(32.957458%, 73.558044%, 48.4375%)" offset="0.667969"/><stop stop-opacity="1" stop-color="rgb(33.369446%, 73.620605%, 47.871399%)" offset="0.671875"/><stop stop-opacity="1" stop-color="rgb(33.781433%, 73.681641%, 47.305298%)" offset="0.675781"/><stop stop-opacity="1" stop-color="rgb(34.19342%, 73.744202%, 46.739197%)" offset="0.679688"/><stop stop-opacity="1" stop-color="rgb(34.605408%, 73.806763%, 46.173096%)" offset="0.683594"/><stop stop-opacity="1" stop-color="rgb(35.017395%, 73.869324%, 45.608521%)" offset="0.6875"/><stop stop-opacity="1" stop-color="rgb(35.429382%, 73.930359%, 45.042419%)" offset="0.691406"/><stop stop-opacity="1" stop-color="rgb(35.84137%, 73.99292%, 44.476318%)" offset="0.695312"/><stop stop-opacity="1" stop-color="rgb(36.253357%, 74.053955%, 43.910217%)" offset="0.699219"/><stop stop-opacity="1" stop-color="rgb(36.665344%, 74.116516%, 43.345642%)" offset="0.703125"/><stop stop-opacity="1" stop-color="rgb(37.077332%, 74.177551%, 42.779541%)" offset="0.707031"/><stop stop-opacity="1" stop-color="rgb(37.489319%, 74.240112%, 42.21344%)" offset="0.710938"/><stop stop-opacity="1" stop-color="rgb(37.901306%, 74.302673%, 41.647339%)" offset="0.714844"/><stop stop-opacity="1" stop-color="rgb(38.313293%, 74.365234%, 41.081238%)" offset="0.71875"/><stop stop-opacity="1" stop-color="rgb(38.725281%, 74.42627%, 40.515137%)" offset="0.722656"/><stop stop-opacity="1" stop-color="rgb(39.137268%, 74.488831%, 39.950562%)" offset="0.726562"/><stop stop-opacity="1" stop-color="rgb(39.549255%, 74.549866%, 39.38446%)" offset="0.730469"/><stop stop-opacity="1" stop-color="rgb(39.961243%, 74.612427%, 38.818359%)" offset="0.734375"/><stop stop-opacity="1" stop-color="rgb(40.37323%, 74.673462%, 38.252258%)" offset="0.738281"/><stop stop-opacity="1" stop-color="rgb(40.785217%, 74.736023%, 37.687683%)" offset="0.742188"/><stop stop-opacity="1" stop-color="rgb(41.197205%, 74.798584%, 37.121582%)" offset="0.746094"/><stop stop-opacity="1" stop-color="rgb(41.609192%, 74.861145%, 36.555481%)" offset="0.75"/><stop stop-opacity="1" stop-color="rgb(42.021179%, 74.92218%, 35.98938%)" offset="0.753906"/><stop stop-opacity="1" stop-color="rgb(42.433167%, 74.984741%, 35.424805%)" offset="0.757812"/><stop stop-opacity="1" stop-color="rgb(42.845154%, 75.045776%, 34.858704%)" offset="0.761719"/><stop stop-opacity="1" stop-color="rgb(43.257141%, 75.108337%, 34.292603%)" offset="0.765625"/><stop stop-opacity="1" stop-color="rgb(43.669128%, 75.169373%, 33.726501%)" offset="0.769531"/><stop stop-opacity="1" stop-color="rgb(44.081116%, 75.231934%, 33.1604%)" offset="0.773438"/><stop stop-opacity="1" stop-color="rgb(44.493103%, 75.294495%, 32.594299%)" offset="0.777344"/><stop stop-opacity="1" stop-color="rgb(44.90509%, 75.357056%, 32.029724%)" offset="0.78125"/><stop stop-opacity="1" stop-color="rgb(45.317078%, 75.418091%, 31.463623%)" offset="0.785156"/><stop stop-opacity="1" stop-color="rgb(45.729065%, 75.480652%, 30.897522%)" offset="0.789062"/><stop stop-opacity="1" stop-color="rgb(46.141052%, 75.541687%, 30.331421%)" offset="0.792969"/><stop stop-opacity="1" stop-color="rgb(46.55304%, 75.604248%, 29.766846%)" offset="0.796875"/><stop stop-opacity="1" stop-color="rgb(46.965027%, 75.665283%, 29.200745%)" offset="0.800781"/><stop stop-opacity="1" stop-color="rgb(47.377014%, 75.727844%, 28.634644%)" offset="0.804688"/><stop stop-opacity="1" stop-color="rgb(47.789001%, 75.790405%, 28.068542%)" offset="0.808594"/><stop stop-opacity="1" stop-color="rgb(48.200989%, 75.852966%, 27.502441%)" offset="0.8125"/><stop stop-opacity="1" stop-color="rgb(48.612976%, 75.914001%, 26.93634%)" offset="0.816406"/><stop stop-opacity="1" stop-color="rgb(49.024963%, 75.976562%, 26.371765%)" offset="0.820312"/><stop stop-opacity="1" stop-color="rgb(49.436951%, 76.037598%, 25.805664%)" offset="0.824219"/><stop stop-opacity="1" stop-color="rgb(49.848938%, 76.100159%, 25.239563%)" offset="0.828125"/><stop stop-opacity="1" stop-color="rgb(50.259399%, 76.161194%, 24.673462%)" offset="0.832031"/><stop stop-opacity="1" stop-color="rgb(50.671387%, 76.223755%, 24.108887%)" offset="0.835938"/><stop stop-opacity="1" stop-color="rgb(51.083374%, 76.286316%, 23.542786%)" offset="0.839844"/><stop stop-opacity="1" stop-color="rgb(51.495361%, 76.348877%, 22.976685%)" offset="0.84375"/><stop stop-opacity="1" stop-color="rgb(51.907349%, 76.409912%, 22.410583%)" offset="0.847656"/><stop stop-opacity="1" stop-color="rgb(52.319336%, 76.472473%, 21.846008%)" offset="0.851563"/><stop stop-opacity="1" stop-color="rgb(52.409363%, 76.486206%, 21.722412%)" offset="0.859375"/><stop stop-opacity="1" stop-color="rgb(52.49939%, 76.499939%, 21.598816%)" offset="0.875"/><stop stop-opacity="1" stop-color="rgb(52.49939%, 76.499939%, 21.598816%)" offset="1"/></linearGradient><clipPath id="ba8fcf83e1"><path d="M 48 124.785156 L 145 124.785156 L 145 208 L 48 208 Z M 48 124.785156 " clip-rule="nonzero"/></clipPath><clipPath id="800ffa3382"><path d="M 106.597656 168.632812 L 112.878906 157.757812 L 119.160156 146.878906 L 125.4375 136.003906 L 112.875 136.003906 L 109.734375 141.441406 L 105.253906 149.203125 L 103.453125 152.316406 L 97.175781 163.191406 L 90.734375 174.34375 L 90.351562 175.007812 L 84.292969 185.5 L 78.015625 174.621094 L 78.148438 174.394531 L 61.523438 146.535156 L 55.242188 135.65625 L 48.960938 124.78125 L 61.523438 124.78125 L 67.800781 135.65625 L 84.371094 163.609375 L 84.617188 163.191406 L 90.894531 152.3125 L 97.175781 141.441406 L 100.316406 136 L 106.597656 125.125 L 144.28125 125.125 L 138.003906 136 L 131.722656 146.878906 L 127.238281 154.640625 L 125.441406 157.753906 L 119.160156 168.628906 L 101.128906 199.851562 L 96.859375 207.25 L 90.578125 196.371094 C 97.195312 184.910156 99.980469 180.089844 106.597656 168.628906 Z M 106.597656 168.632812 " clip-rule="evenodd"/></clipPath><linearGradient x1="0.923832" gradientTransform="matrix(95.321516, 0, 0, 82.468649, 48.961082, 124.779997)" y1="1.028824" x2="0.467551" gradientUnits="userSpaceOnUse" y2="-0.176885" id="1535f66115"><stop stop-opacity="1" stop-color="rgb(0%, 68.598938%, 93.699646%)" offset="0"/><stop stop-opacity="1" stop-color="rgb(0%, 68.598938%, 93.699646%)" offset="0.25"/><stop stop-opacity="1" stop-color="rgb(0%, 68.598938%, 93.699646%)" offset="0.27455"/><stop stop-opacity="1" stop-color="rgb(0%, 68.598938%, 93.699646%)" offset="0.3125"/><stop stop-opacity="1" stop-color="rgb(0%, 68.598938%, 93.699646%)" offset="0.34375"/><stop stop-opacity="1" stop-color="rgb(0%, 68.598938%, 93.699646%)" offset="0.351562"/><stop stop-opacity="1" stop-color="rgb(0.204468%, 68.629456%, 93.417358%)" offset="0.355469"/><stop stop-opacity="1" stop-color="rgb(0.408936%, 68.661499%, 93.136597%)" offset="0.359375"/><stop stop-opacity="1" stop-color="rgb(0.820923%, 68.722534%, 92.570496%)" offset="0.363281"/><stop stop-opacity="1" stop-color="rgb(1.23291%, 68.785095%, 92.004395%)" offset="0.367188"/><stop stop-opacity="1" stop-color="rgb(1.644897%, 68.84613%, 91.438293%)" offset="0.371094"/><stop stop-opacity="1" stop-color="rgb(2.056885%, 68.908691%, 90.873718%)" offset="0.375"/><stop stop-opacity="1" stop-color="rgb(2.468872%, 68.969727%, 90.307617%)" offset="0.378906"/><stop stop-opacity="1" stop-color="rgb(2.880859%, 69.032288%, 89.741516%)" offset="0.382813"/><stop stop-opacity="1" stop-color="rgb(3.292847%, 69.094849%, 89.175415%)" offset="0.386719"/><stop stop-opacity="1" stop-color="rgb(3.704834%, 69.15741%, 88.609314%)" offset="0.390625"/><stop stop-opacity="1" stop-color="rgb(4.116821%, 69.218445%, 88.043213%)" offset="0.394531"/><stop stop-opacity="1" stop-color="rgb(4.528809%, 69.281006%, 87.478638%)" offset="0.398438"/><stop stop-opacity="1" stop-color="rgb(4.940796%, 69.342041%, 86.912537%)" offset="0.402344"/><stop stop-opacity="1" stop-color="rgb(5.352783%, 69.404602%, 86.346436%)" offset="0.40625"/><stop stop-opacity="1" stop-color="rgb(5.764771%, 69.465637%, 85.780334%)" offset="0.410156"/><stop stop-opacity="1" stop-color="rgb(6.176758%, 69.528198%, 85.215759%)" offset="0.414062"/><stop stop-opacity="1" stop-color="rgb(6.588745%, 69.590759%, 84.649658%)" offset="0.417969"/><stop stop-opacity="1" stop-color="rgb(7.000732%, 69.65332%, 84.083557%)" offset="0.421875"/><stop stop-opacity="1" stop-color="rgb(7.41272%, 69.714355%, 83.517456%)" offset="0.425781"/><stop stop-opacity="1" stop-color="rgb(7.824707%, 69.776917%, 82.952881%)" offset="0.429688"/><stop stop-opacity="1" stop-color="rgb(8.236694%, 69.837952%, 82.38678%)" offset="0.433594"/><stop stop-opacity="1" stop-color="rgb(8.648682%, 69.900513%, 81.820679%)" offset="0.4375"/><stop stop-opacity="1" stop-color="rgb(9.060669%, 69.961548%, 81.254578%)" offset="0.441406"/><stop stop-opacity="1" stop-color="rgb(9.472656%, 70.024109%, 80.690002%)" offset="0.445312"/><stop stop-opacity="1" stop-color="rgb(9.884644%, 70.08667%, 80.123901%)" offset="0.449219"/><stop stop-opacity="1" stop-color="rgb(10.296631%, 70.149231%, 79.5578%)" offset="0.453125"/><stop stop-opacity="1" stop-color="rgb(10.708618%, 70.210266%, 78.991699%)" offset="0.457031"/><stop stop-opacity="1" stop-color="rgb(11.120605%, 70.272827%, 78.425598%)" offset="0.460938"/><stop stop-opacity="1" stop-color="rgb(11.532593%, 70.333862%, 77.859497%)" offset="0.464844"/><stop stop-opacity="1" stop-color="rgb(11.94458%, 70.396423%, 77.294922%)" offset="0.46875"/><stop stop-opacity="1" stop-color="rgb(12.356567%, 70.457458%, 76.728821%)" offset="0.472656"/><stop stop-opacity="1" stop-color="rgb(12.768555%, 70.52002%, 76.16272%)" offset="0.476562"/><stop stop-opacity="1" stop-color="rgb(13.180542%, 70.582581%, 75.596619%)" offset="0.480469"/><stop stop-opacity="1" stop-color="rgb(13.592529%, 70.645142%, 75.032043%)" offset="0.484375"/><stop stop-opacity="1" stop-color="rgb(14.004517%, 70.706177%, 74.465942%)" offset="0.488281"/><stop stop-opacity="1" stop-color="rgb(14.416504%, 70.768738%, 73.899841%)" offset="0.492188"/><stop stop-opacity="1" stop-color="rgb(14.828491%, 70.829773%, 73.33374%)" offset="0.496094"/><stop stop-opacity="1" stop-color="rgb(15.240479%, 70.892334%, 72.769165%)" offset="0.5"/><stop stop-opacity="1" stop-color="rgb(15.652466%, 70.953369%, 72.203064%)" offset="0.503906"/><stop stop-opacity="1" stop-color="rgb(16.064453%, 71.01593%, 71.636963%)" offset="0.507813"/><stop stop-opacity="1" stop-color="rgb(16.47644%, 71.078491%, 71.070862%)" offset="0.511719"/><stop stop-opacity="1" stop-color="rgb(16.888428%, 71.141052%, 70.506287%)" offset="0.515625"/><stop stop-opacity="1" stop-color="rgb(17.300415%, 71.202087%, 69.940186%)" offset="0.519531"/><stop stop-opacity="1" stop-color="rgb(17.712402%, 71.264648%, 69.374084%)" offset="0.523438"/><stop stop-opacity="1" stop-color="rgb(18.12439%, 71.325684%, 68.807983%)" offset="0.527344"/><stop stop-opacity="1" stop-color="rgb(18.536377%, 71.388245%, 68.241882%)" offset="0.53125"/><stop stop-opacity="1" stop-color="rgb(18.946838%, 71.44928%, 67.675781%)" offset="0.535156"/><stop stop-opacity="1" stop-color="rgb(19.358826%, 71.511841%, 67.111206%)" offset="0.539063"/><stop stop-opacity="1" stop-color="rgb(19.770813%, 71.574402%, 66.545105%)" offset="0.542969"/><stop stop-opacity="1" stop-color="rgb(20.1828%, 71.636963%, 65.979004%)" offset="0.546875"/><stop stop-opacity="1" stop-color="rgb(20.594788%, 71.697998%, 65.412903%)" offset="0.550781"/><stop stop-opacity="1" stop-color="rgb(21.006775%, 71.760559%, 64.848328%)" offset="0.554688"/><stop stop-opacity="1" stop-color="rgb(21.418762%, 71.821594%, 64.282227%)" offset="0.558594"/><stop stop-opacity="1" stop-color="rgb(21.83075%, 71.884155%, 63.716125%)" offset="0.5625"/><stop stop-opacity="1" stop-color="rgb(22.242737%, 71.94519%, 63.150024%)" offset="0.566406"/><stop stop-opacity="1" stop-color="rgb(22.654724%, 72.007751%, 62.585449%)" offset="0.570313"/><stop stop-opacity="1" stop-color="rgb(23.066711%, 72.070312%, 62.019348%)" offset="0.574219"/><stop stop-opacity="1" stop-color="rgb(23.478699%, 72.132874%, 61.453247%)" offset="0.578125"/><stop stop-opacity="1" stop-color="rgb(23.890686%, 72.193909%, 60.887146%)" offset="0.582031"/><stop stop-opacity="1" stop-color="rgb(24.302673%, 72.25647%, 60.322571%)" offset="0.585938"/><stop stop-opacity="1" stop-color="rgb(24.714661%, 72.317505%, 59.75647%)" offset="0.589844"/><stop stop-opacity="1" stop-color="rgb(25.126648%, 72.380066%, 59.190369%)" offset="0.59375"/><stop stop-opacity="1" stop-color="rgb(25.538635%, 72.441101%, 58.624268%)" offset="0.597656"/><stop stop-opacity="1" stop-color="rgb(25.950623%, 72.503662%, 58.058167%)" offset="0.601563"/><stop stop-opacity="1" stop-color="rgb(26.36261%, 72.566223%, 57.492065%)" offset="0.605469"/><stop stop-opacity="1" stop-color="rgb(26.774597%, 72.628784%, 56.92749%)" offset="0.609375"/><stop stop-opacity="1" stop-color="rgb(27.186584%, 72.689819%, 56.361389%)" offset="0.613281"/><stop stop-opacity="1" stop-color="rgb(27.598572%, 72.75238%, 55.795288%)" offset="0.617188"/><stop stop-opacity="1" stop-color="rgb(28.010559%, 72.813416%, 55.229187%)" offset="0.621094"/><stop stop-opacity="1" stop-color="rgb(28.422546%, 72.875977%, 54.664612%)" offset="0.625"/><stop stop-opacity="1" stop-color="rgb(28.834534%, 72.937012%, 54.098511%)" offset="0.628906"/><stop stop-opacity="1" stop-color="rgb(29.246521%, 72.999573%, 53.53241%)" offset="0.632813"/><stop stop-opacity="1" stop-color="rgb(29.658508%, 73.062134%, 52.966309%)" offset="0.636719"/><stop stop-opacity="1" stop-color="rgb(30.070496%, 73.124695%, 52.401733%)" offset="0.640625"/><stop stop-opacity="1" stop-color="rgb(30.482483%, 73.18573%, 51.835632%)" offset="0.644531"/><stop stop-opacity="1" stop-color="rgb(30.89447%, 73.248291%, 51.269531%)" offset="0.648438"/><stop stop-opacity="1" stop-color="rgb(31.306458%, 73.309326%, 50.70343%)" offset="0.652344"/><stop stop-opacity="1" stop-color="rgb(31.718445%, 73.371887%, 50.138855%)" offset="0.65625"/><stop stop-opacity="1" stop-color="rgb(32.130432%, 73.432922%, 49.572754%)" offset="0.660156"/><stop stop-opacity="1" stop-color="rgb(32.542419%, 73.495483%, 49.006653%)" offset="0.664063"/><stop stop-opacity="1" stop-color="rgb(32.954407%, 73.558044%, 48.440552%)" offset="0.667969"/><stop stop-opacity="1" stop-color="rgb(33.366394%, 73.620605%, 47.874451%)" offset="0.671875"/><stop stop-opacity="1" stop-color="rgb(33.778381%, 73.681641%, 47.30835%)" offset="0.675781"/><stop stop-opacity="1" stop-color="rgb(34.190369%, 73.744202%, 46.743774%)" offset="0.679688"/><stop stop-opacity="1" stop-color="rgb(34.602356%, 73.805237%, 46.177673%)" offset="0.683594"/><stop stop-opacity="1" stop-color="rgb(35.014343%, 73.867798%, 45.611572%)" offset="0.6875"/><stop stop-opacity="1" stop-color="rgb(35.426331%, 73.928833%, 45.045471%)" offset="0.691406"/><stop stop-opacity="1" stop-color="rgb(35.838318%, 73.991394%, 44.480896%)" offset="0.695313"/><stop stop-opacity="1" stop-color="rgb(36.250305%, 74.053955%, 43.914795%)" offset="0.699219"/><stop stop-opacity="1" stop-color="rgb(36.662292%, 74.116516%, 43.348694%)" offset="0.703125"/><stop stop-opacity="1" stop-color="rgb(37.07428%, 74.177551%, 42.782593%)" offset="0.707031"/><stop stop-opacity="1" stop-color="rgb(37.486267%, 74.240112%, 42.218018%)" offset="0.710938"/><stop stop-opacity="1" stop-color="rgb(37.898254%, 74.301147%, 41.651917%)" offset="0.714844"/><stop stop-opacity="1" stop-color="rgb(38.310242%, 74.363708%, 41.085815%)" offset="0.71875"/><stop stop-opacity="1" stop-color="rgb(38.722229%, 74.424744%, 40.519714%)" offset="0.722656"/><stop stop-opacity="1" stop-color="rgb(39.134216%, 74.487305%, 39.955139%)" offset="0.726563"/><stop stop-opacity="1" stop-color="rgb(39.546204%, 74.549866%, 39.389038%)" offset="0.730469"/><stop stop-opacity="1" stop-color="rgb(39.958191%, 74.612427%, 38.822937%)" offset="0.734375"/><stop stop-opacity="1" stop-color="rgb(40.370178%, 74.673462%, 38.256836%)" offset="0.738281"/><stop stop-opacity="1" stop-color="rgb(40.782166%, 74.736023%, 37.690735%)" offset="0.742188"/><stop stop-opacity="1" stop-color="rgb(41.194153%, 74.797058%, 37.124634%)" offset="0.746094"/><stop stop-opacity="1" stop-color="rgb(41.60614%, 74.859619%, 36.560059%)" offset="0.75"/><stop stop-opacity="1" stop-color="rgb(42.018127%, 74.92218%, 35.993958%)" offset="0.753906"/><stop stop-opacity="1" stop-color="rgb(42.430115%, 74.984741%, 35.427856%)" offset="0.757812"/><stop stop-opacity="1" stop-color="rgb(42.842102%, 75.045776%, 34.861755%)" offset="0.761719"/><stop stop-opacity="1" stop-color="rgb(43.254089%, 75.108337%, 34.29718%)" offset="0.765625"/><stop stop-opacity="1" stop-color="rgb(43.666077%, 75.169373%, 33.731079%)" offset="0.769531"/><stop stop-opacity="1" stop-color="rgb(44.078064%, 75.231934%, 33.164978%)" offset="0.773438"/><stop stop-opacity="1" stop-color="rgb(44.490051%, 75.292969%, 32.598877%)" offset="0.777344"/><stop stop-opacity="1" stop-color="rgb(44.902039%, 75.35553%, 32.034302%)" offset="0.78125"/><stop stop-opacity="1" stop-color="rgb(45.3125%, 75.418091%, 31.468201%)" offset="0.785156"/><stop stop-opacity="1" stop-color="rgb(45.724487%, 75.480652%, 30.9021%)" offset="0.789062"/><stop stop-opacity="1" stop-color="rgb(46.136475%, 75.541687%, 30.335999%)" offset="0.792969"/><stop stop-opacity="1" stop-color="rgb(46.548462%, 75.604248%, 29.771423%)" offset="0.796875"/><stop stop-opacity="1" stop-color="rgb(46.960449%, 75.665283%, 29.205322%)" offset="0.800781"/><stop stop-opacity="1" stop-color="rgb(47.372437%, 75.727844%, 28.639221%)" offset="0.804688"/><stop stop-opacity="1" stop-color="rgb(47.784424%, 75.788879%, 28.07312%)" offset="0.808594"/><stop stop-opacity="1" stop-color="rgb(48.196411%, 75.85144%, 27.507019%)" offset="0.8125"/><stop stop-opacity="1" stop-color="rgb(48.608398%, 75.914001%, 26.940918%)" offset="0.816406"/><stop stop-opacity="1" stop-color="rgb(49.020386%, 75.976562%, 26.376343%)" offset="0.820312"/><stop stop-opacity="1" stop-color="rgb(49.432373%, 76.037598%, 25.810242%)" offset="0.824219"/><stop stop-opacity="1" stop-color="rgb(49.84436%, 76.100159%, 25.244141%)" offset="0.828125"/><stop stop-opacity="1" stop-color="rgb(50.256348%, 76.161194%, 24.67804%)" offset="0.832031"/><stop stop-opacity="1" stop-color="rgb(50.668335%, 76.223755%, 24.113464%)" offset="0.835938"/><stop stop-opacity="1" stop-color="rgb(51.080322%, 76.28479%, 23.547363%)" offset="0.839844"/><stop stop-opacity="1" stop-color="rgb(51.49231%, 76.347351%, 22.981262%)" offset="0.84375"/><stop stop-opacity="1" stop-color="rgb(51.904297%, 76.409912%, 22.415161%)" offset="0.847656"/><stop stop-opacity="1" stop-color="rgb(52.316284%, 76.472473%, 21.850586%)" offset="0.851562"/><stop stop-opacity="1" stop-color="rgb(52.407837%, 76.486206%, 21.723938%)" offset="0.859375"/><stop stop-opacity="1" stop-color="rgb(52.49939%, 76.499939%, 21.598816%)" offset="0.875"/><stop stop-opacity="1" stop-color="rgb(52.49939%, 76.499939%, 21.598816%)" offset="1"/></linearGradient></defs><rect x="-37.5" width="450" fill="#ffffff" y="-37.499999" height="449.999989" fill-opacity="1"/><rect x="-37.5" width="450" fill="#f8fdff" y="-37.499999" height="449.999989" fill-opacity="1"/><g clip-path="url(#c98b6e1b05)"><g clip-path="url(#6b5f40ec73)"><path fill="url(#f55f4b5878)" d="M 0.0585938 125.128906 L 0.0585938 250.035156 L 169.441406 250.035156 L 169.441406 125.128906 Z M 0.0585938 125.128906 " fill-rule="nonzero"/></g></g><g clip-path="url(#ba8fcf83e1)"><g clip-path="url(#800ffa3382)"><path fill="url(#1535f66115)" d="M 48.960938 124.785156 L 48.960938 207.25 L 144.28125 207.25 L 144.28125 124.785156 Z M 48.960938 124.785156 " fill-rule="nonzero"/></g></g><g fill="#f8fdff" fill-opacity="1"><g transform="translate(167.27398, 166.442024)"><g><path d="M 11.828125 0 C 11.253906 0 10.945312 -0.269531 10.90625 -0.8125 L 4.859375 -36.71875 L 4.859375 -36.9375 C 4.859375 -37.507812 5.164062 -37.796875 5.78125 -37.796875 L 13.171875 -37.796875 C 13.753906 -37.796875 14.0625 -37.507812 14.09375 -36.9375 L 17.125 -12.953125 C 17.15625 -12.816406 17.210938 -12.75 17.296875 -12.75 C 17.390625 -12.75 17.457031 -12.816406 17.5 -12.953125 L 26.296875 -36.9375 C 26.515625 -37.507812 26.894531 -37.796875 27.4375 -37.796875 L 34.671875 -37.796875 C 35.171875 -37.796875 35.421875 -37.597656 35.421875 -37.203125 C 35.421875 -37.097656 35.382812 -36.9375 35.3125 -36.71875 L 20.359375 -0.8125 C 20.179688 -0.269531 19.785156 0 19.171875 0 Z M 11.828125 0 "/></g></g></g><g fill="#f8fdff" fill-opacity="1"><g transform="translate(200.483988, 166.442024)"><g><path d="M 20.140625 -26.953125 C 20.179688 -27.234375 20.289062 -27.460938 20.46875 -27.640625 C 20.644531 -27.828125 20.878906 -27.921875 21.171875 -27.921875 L 27.96875 -27.921875 C 28.257812 -27.921875 28.484375 -27.828125 28.640625 -27.640625 C 28.804688 -27.460938 28.875 -27.234375 28.84375 -26.953125 L 25.65625 -0.96875 C 25.539062 -0.320312 25.175781 0 24.5625 0 L 17.765625 0 C 17.472656 0 17.253906 -0.0859375 17.109375 -0.265625 C 16.972656 -0.453125 16.921875 -0.6875 16.953125 -0.96875 L 17.125 -2.328125 C 17.125 -2.503906 17.085938 -2.609375 17.015625 -2.640625 C 16.941406 -2.679688 16.832031 -2.628906 16.6875 -2.484375 C 15.03125 -0.535156 12.742188 0.4375 9.828125 0.4375 C 7.453125 0.4375 5.5625 -0.253906 4.15625 -1.640625 C 2.75 -3.023438 2.046875 -5 2.046875 -7.5625 C 2.046875 -8.351562 2.082031 -8.960938 2.15625 -9.390625 L 4.3125 -26.953125 C 4.351562 -27.234375 4.460938 -27.460938 4.640625 -27.640625 C 4.816406 -27.828125 5.050781 -27.921875 5.34375 -27.921875 L 12.15625 -27.921875 C 12.4375 -27.921875 12.65625 -27.828125 12.8125 -27.640625 C 12.976562 -27.460938 13.046875 -27.234375 13.015625 -26.953125 L 11.0625 -11.453125 L 11.015625 -10.75 C 11.015625 -9.664062 11.285156 -8.816406 11.828125 -8.203125 C 12.367188 -7.597656 13.125 -7.296875 14.09375 -7.296875 C 15.0625 -7.296875 15.90625 -7.597656 16.625 -8.203125 C 17.351562 -8.816406 17.859375 -9.628906 18.140625 -10.640625 Z M 20.140625 -26.953125 "/></g></g></g><g fill="#f8fdff" fill-opacity="1"><g transform="translate(229.265992, 166.442024)"><g><path d="M 20.515625 -21.703125 C 20.484375 -21.421875 20.367188 -21.1875 20.171875 -21 C 19.972656 -20.820312 19.726562 -20.734375 19.4375 -20.734375 L 15.125 -20.734375 C 14.90625 -20.734375 14.757812 -20.609375 14.6875 -20.359375 L 13.546875 -10.90625 C 13.515625 -10.6875 13.5 -10.398438 13.5 -10.046875 C 13.5 -8.566406 14.179688 -7.828125 15.546875 -7.828125 L 17.21875 -7.828125 C 17.507812 -7.828125 17.726562 -7.738281 17.875 -7.5625 C 18.019531 -7.382812 18.070312 -7.148438 18.03125 -6.859375 L 17.328125 -1.1875 C 17.296875 -0.613281 16.957031 -0.289062 16.3125 -0.21875 C 14.726562 -0.144531 13.59375 -0.109375 12.90625 -0.109375 C 10.132812 -0.109375 8.0625 -0.507812 6.6875 -1.3125 C 5.320312 -2.125 4.640625 -3.628906 4.640625 -5.828125 C 4.640625 -6.117188 4.675781 -6.585938 4.75 -7.234375 L 6.375 -20.359375 L 6.375 -20.46875 C 6.375 -20.644531 6.265625 -20.734375 6.046875 -20.734375 L 3.515625 -20.734375 C 3.222656 -20.734375 2.992188 -20.820312 2.828125 -21 C 2.671875 -21.1875 2.609375 -21.421875 2.640625 -21.703125 L 3.296875 -26.953125 C 3.398438 -27.597656 3.757812 -27.921875 4.375 -27.921875 L 6.90625 -27.921875 C 7.019531 -27.921875 7.117188 -27.957031 7.203125 -28.03125 C 7.296875 -28.101562 7.34375 -28.191406 7.34375 -28.296875 L 8.09375 -34.390625 C 8.132812 -34.679688 8.253906 -34.914062 8.453125 -35.09375 C 8.648438 -35.28125 8.894531 -35.375 9.1875 -35.375 L 15.609375 -35.375 C 15.890625 -35.375 16.101562 -35.28125 16.25 -35.09375 C 16.394531 -34.914062 16.453125 -34.679688 16.421875 -34.390625 L 15.65625 -28.296875 C 15.65625 -28.046875 15.765625 -27.921875 15.984375 -27.921875 L 20.359375 -27.921875 C 20.648438 -27.921875 20.863281 -27.828125 21 -27.640625 C 21.144531 -27.460938 21.203125 -27.234375 21.171875 -26.953125 Z M 20.515625 -21.703125 "/></g></g></g><g fill="#f8fdff" fill-opacity="1"><g transform="translate(249.461997, 166.442024)"><g><path d="M 13.5 0.4375 C 10.363281 0.4375 7.804688 -0.425781 5.828125 -2.15625 C 3.847656 -3.882812 2.660156 -6.226562 2.265625 -9.1875 C 2.160156 -9.9375 2.109375 -10.707031 2.109375 -11.5 C 2.109375 -12.332031 2.160156 -13.179688 2.265625 -14.046875 C 2.484375 -15.765625 2.914062 -17.507812 3.5625 -19.28125 C 4.75 -22.125 6.53125 -24.34375 8.90625 -25.9375 C 11.28125 -27.539062 14.019531 -28.34375 17.125 -28.34375 C 20.175781 -28.34375 22.675781 -27.539062 24.625 -25.9375 C 26.570312 -24.34375 27.773438 -22.140625 28.234375 -19.328125 C 28.378906 -18.503906 28.453125 -17.535156 28.453125 -16.421875 C 28.453125 -15.410156 28.414062 -14.648438 28.34375 -14.140625 C 28.132812 -12.347656 27.738281 -10.765625 27.15625 -9.390625 C 26.082031 -6.367188 24.335938 -3.972656 21.921875 -2.203125 C 19.515625 -0.441406 16.707031 0.4375 13.5 0.4375 Z M 14.46875 -7.234375 C 15.476562 -7.234375 16.359375 -7.566406 17.109375 -8.234375 C 17.867188 -8.898438 18.46875 -9.8125 18.90625 -10.96875 C 19.1875 -11.757812 19.421875 -12.785156 19.609375 -14.046875 C 19.671875 -14.835938 19.703125 -15.394531 19.703125 -15.71875 C 19.703125 -17.257812 19.40625 -18.472656 18.8125 -19.359375 C 18.21875 -20.242188 17.3125 -20.6875 16.09375 -20.6875 C 14.039062 -20.6875 12.597656 -19.515625 11.765625 -17.171875 C 11.367188 -16.273438 11.117188 -15.234375 11.015625 -14.046875 C 10.910156 -13.359375 10.859375 -12.691406 10.859375 -12.046875 C 10.859375 -10.597656 11.160156 -9.429688 11.765625 -8.546875 C 12.378906 -7.671875 13.28125 -7.234375 14.46875 -7.234375 Z M 14.46875 -7.234375 "/></g></g></g><g fill="#f8fdff" fill-opacity="1"><g transform="translate(278.676004, 166.442024)"><g><path d="M 35.75 -28.34375 C 38.195312 -28.34375 40.078125 -27.648438 41.390625 -26.265625 C 42.703125 -24.878906 43.359375 -22.925781 43.359375 -20.40625 C 43.359375 -19.539062 43.320312 -18.894531 43.25 -18.46875 L 41.09375 -0.96875 C 40.988281 -0.320312 40.628906 0 40.015625 0 L 33.265625 0 C 32.972656 0 32.753906 -0.0859375 32.609375 -0.265625 C 32.472656 -0.453125 32.421875 -0.6875 32.453125 -0.96875 L 34.34375 -16.53125 C 34.375 -16.707031 34.390625 -16.972656 34.390625 -17.328125 C 34.390625 -18.335938 34.128906 -19.148438 33.609375 -19.765625 C 33.085938 -20.378906 32.378906 -20.6875 31.484375 -20.6875 C 30.472656 -20.6875 29.597656 -20.304688 28.859375 -19.546875 C 28.117188 -18.785156 27.679688 -17.78125 27.546875 -16.53125 L 25.65625 -0.96875 C 25.539062 -0.320312 25.175781 0 24.5625 0 L 17.765625 0 C 17.472656 0 17.253906 -0.0859375 17.109375 -0.265625 C 16.972656 -0.453125 16.921875 -0.6875 16.953125 -0.96875 L 18.84375 -16.53125 C 18.882812 -16.707031 18.90625 -16.957031 18.90625 -17.28125 C 18.90625 -18.320312 18.625 -19.148438 18.0625 -19.765625 C 17.5 -20.378906 16.769531 -20.6875 15.875 -20.6875 C 14.9375 -20.6875 14.113281 -20.378906 13.40625 -19.765625 C 12.707031 -19.148438 12.234375 -18.335938 11.984375 -17.328125 L 9.984375 -0.96875 C 9.878906 -0.320312 9.519531 0 8.90625 0 L 2.109375 0 C 1.816406 0 1.597656 -0.0859375 1.453125 -0.265625 C 1.304688 -0.453125 1.253906 -0.6875 1.296875 -0.96875 L 4.484375 -26.953125 C 4.515625 -27.234375 4.617188 -27.460938 4.796875 -27.640625 C 4.984375 -27.828125 5.222656 -27.921875 5.515625 -27.921875 L 12.3125 -27.921875 C 12.601562 -27.921875 12.828125 -27.828125 12.984375 -27.640625 C 13.148438 -27.460938 13.210938 -27.234375 13.171875 -26.953125 L 12.90625 -25.0625 L 12.90625 -24.953125 C 12.90625 -24.804688 12.945312 -24.734375 13.03125 -24.734375 C 13.125 -24.734375 13.226562 -24.804688 13.34375 -24.953125 C 14.957031 -27.210938 17.296875 -28.34375 20.359375 -28.34375 C 22.085938 -28.34375 23.550781 -27.957031 24.75 -27.1875 C 25.957031 -26.414062 26.832031 -25.289062 27.375 -23.8125 C 27.414062 -23.664062 27.476562 -23.601562 27.5625 -23.625 C 27.65625 -23.644531 27.753906 -23.726562 27.859375 -23.875 C 29.660156 -26.851562 32.289062 -28.34375 35.75 -28.34375 Z M 35.75 -28.34375 "/></g></g></g><g fill="#f8fdff" fill-opacity="1"><g transform="translate(322.686018, 166.442024)"><g><path d="M 0.109375 10.75 C -0.140625 10.75 -0.226562 10.425781 -0.15625 9.78125 L 0.484375 4.375 C 0.523438 4.082031 0.585938 3.847656 0.671875 3.671875 C 0.765625 3.492188 0.847656 3.40625 0.921875 3.40625 L 1.1875 3.40625 C 3.414062 3.40625 5.035156 3.207031 6.046875 2.8125 C 7.054688 2.414062 7.757812 1.566406 8.15625 0.265625 C 8.1875 0.117188 8.203125 -0.0390625 8.203125 -0.21875 L 3.1875 -26.84375 L 3.1875 -27.046875 C 3.1875 -27.628906 3.472656 -27.921875 4.046875 -27.921875 L 11.390625 -27.921875 C 11.679688 -27.921875 11.90625 -27.835938 12.0625 -27.671875 C 12.226562 -27.515625 12.3125 -27.304688 12.3125 -27.046875 L 13.984375 -12.953125 C 14.085938 -12.597656 14.234375 -12.597656 14.421875 -12.953125 L 19.4375 -27.046875 C 19.507812 -27.304688 19.65625 -27.515625 19.875 -27.671875 C 20.09375 -27.835938 20.34375 -27.921875 20.625 -27.921875 L 27.859375 -27.921875 C 28.398438 -27.921875 28.671875 -27.703125 28.671875 -27.265625 L 28.5625 -26.84375 L 16.46875 0.546875 C 15.25 3.242188 14.078125 5.285156 12.953125 6.671875 C 11.835938 8.054688 10.328125 9.082031 8.421875 9.75 C 6.515625 10.414062 3.867188 10.75 0.484375 10.75 Z M 0.109375 10.75 "/></g></g></g><g fill="#f8fdff" fill-opacity="1"><g transform="translate(177.427602, 183.167009)"><g><path d="M 9.671875 -11.671875 C 9.742188 -11.671875 9.800781 -11.644531 9.84375 -11.59375 C 9.882812 -11.539062 9.898438 -11.476562 9.890625 -11.40625 L 9.75 -10.25 C 9.738281 -10.175781 9.707031 -10.113281 9.65625 -10.0625 C 9.613281 -10.007812 9.546875 -9.984375 9.453125 -9.984375 L 6.5625 -9.984375 C 6.507812 -9.984375 6.472656 -9.953125 6.453125 -9.890625 L 5.265625 -0.265625 C 5.253906 -0.191406 5.222656 -0.128906 5.171875 -0.078125 C 5.128906 -0.0234375 5.066406 0 4.984375 0 L 3.625 0 C 3.539062 0 3.476562 -0.0234375 3.4375 -0.078125 C 3.40625 -0.128906 3.394531 -0.191406 3.40625 -0.265625 L 4.578125 -9.890625 C 4.578125 -9.953125 4.546875 -9.984375 4.484375 -9.984375 L 1.71875 -9.984375 C 1.539062 -9.984375 1.460938 -10.070312 1.484375 -10.25 L 1.640625 -11.40625 C 1.660156 -11.582031 1.753906 -11.671875 1.921875 -11.671875 Z M 9.671875 -11.671875 "/></g></g></g><g fill="#f8fdff" fill-opacity="1"><g transform="translate(186.792782, 183.167009)"><g><path d="M 5.578125 -8.625 C 5.910156 -8.625 6.191406 -8.5625 6.421875 -8.4375 C 6.546875 -8.375 6.578125 -8.265625 6.515625 -8.109375 L 6.109375 -6.71875 C 6.066406 -6.625 6.019531 -6.566406 5.96875 -6.546875 C 5.925781 -6.523438 5.859375 -6.523438 5.765625 -6.546875 C 5.640625 -6.597656 5.472656 -6.625 5.265625 -6.625 C 5.128906 -6.625 5.023438 -6.617188 4.953125 -6.609375 C 4.492188 -6.578125 4.09375 -6.410156 3.75 -6.109375 C 3.414062 -5.804688 3.21875 -5.410156 3.15625 -4.921875 L 2.578125 -0.265625 C 2.566406 -0.191406 2.535156 -0.128906 2.484375 -0.078125 C 2.441406 -0.0234375 2.378906 0 2.296875 0 L 0.9375 0 C 0.851562 0 0.789062 -0.0234375 0.75 -0.078125 C 0.71875 -0.128906 0.707031 -0.191406 0.71875 -0.265625 L 1.703125 -8.25 C 1.722656 -8.425781 1.816406 -8.515625 1.984375 -8.515625 L 3.328125 -8.515625 C 3.503906 -8.515625 3.582031 -8.425781 3.5625 -8.25 L 3.484375 -7.609375 C 3.484375 -7.554688 3.488281 -7.523438 3.5 -7.515625 C 3.519531 -7.503906 3.546875 -7.519531 3.578125 -7.5625 C 4.109375 -8.269531 4.773438 -8.625 5.578125 -8.625 Z M 5.578125 -8.625 "/></g></g></g><g fill="#f8fdff" fill-opacity="1"><g transform="translate(192.875156, 183.167009)"><g><path d="M 6.5625 -8.25 C 6.601562 -8.425781 6.707031 -8.515625 6.875 -8.515625 L 8.203125 -8.515625 C 8.378906 -8.515625 8.457031 -8.425781 8.4375 -8.25 L 7.453125 -0.265625 C 7.441406 -0.191406 7.410156 -0.128906 7.359375 -0.078125 C 7.304688 -0.0234375 7.242188 0 7.171875 0 L 5.8125 0 C 5.738281 0 5.679688 -0.0234375 5.640625 -0.078125 C 5.597656 -0.128906 5.585938 -0.191406 5.609375 -0.265625 L 5.65625 -0.703125 C 5.65625 -0.742188 5.640625 -0.769531 5.609375 -0.78125 C 5.585938 -0.789062 5.5625 -0.773438 5.53125 -0.734375 C 5.03125 -0.171875 4.34375 0.109375 3.46875 0.109375 C 2.71875 0.109375 2.097656 -0.09375 1.609375 -0.5 C 1.128906 -0.90625 0.890625 -1.492188 0.890625 -2.265625 C 0.890625 -2.359375 0.898438 -2.503906 0.921875 -2.703125 L 1.59375 -8.25 C 1.625 -8.425781 1.722656 -8.515625 1.890625 -8.515625 L 3.25 -8.515625 C 3.332031 -8.515625 3.390625 -8.488281 3.421875 -8.4375 C 3.460938 -8.394531 3.476562 -8.332031 3.46875 -8.25 L 2.84375 -3.25 C 2.832031 -3.1875 2.828125 -3.082031 2.828125 -2.9375 C 2.828125 -2.5 2.941406 -2.15625 3.171875 -1.90625 C 3.398438 -1.65625 3.726562 -1.53125 4.15625 -1.53125 C 4.632812 -1.53125 5.039062 -1.6875 5.375 -2 C 5.707031 -2.3125 5.90625 -2.726562 5.96875 -3.25 Z M 6.5625 -8.25 "/></g></g></g><g fill="#f8fdff" fill-opacity="1"><g transform="translate(201.623775, 183.167009)"><g><path d="M 4.09375 0.140625 C 3.28125 0.140625 2.597656 -0.078125 2.046875 -0.515625 C 1.492188 -0.960938 1.144531 -1.554688 1 -2.296875 C 0.9375 -2.585938 0.90625 -2.898438 0.90625 -3.234375 C 0.90625 -3.523438 0.929688 -3.878906 0.984375 -4.296875 C 1.066406 -5.066406 1.234375 -5.722656 1.484375 -6.265625 C 1.804688 -7.003906 2.296875 -7.585938 2.953125 -8.015625 C 3.609375 -8.441406 4.351562 -8.65625 5.1875 -8.65625 C 6.03125 -8.65625 6.738281 -8.4375 7.3125 -8 C 7.882812 -7.570312 8.234375 -7.03125 8.359375 -6.375 C 8.390625 -6.164062 8.398438 -6.007812 8.390625 -5.90625 L 8.390625 -5.875 C 8.390625 -5.726562 8.304688 -5.640625 8.140625 -5.609375 L 6.765625 -5.390625 L 6.703125 -5.390625 C 6.578125 -5.390625 6.515625 -5.453125 6.515625 -5.578125 L 6.484375 -5.796875 C 6.453125 -6.128906 6.300781 -6.410156 6.03125 -6.640625 C 5.757812 -6.867188 5.410156 -6.984375 4.984375 -6.984375 C 4.554688 -6.984375 4.191406 -6.875 3.890625 -6.65625 C 3.585938 -6.4375 3.363281 -6.140625 3.21875 -5.765625 C 3.0625 -5.398438 2.945312 -4.90625 2.875 -4.28125 C 2.820312 -3.9375 2.796875 -3.613281 2.796875 -3.3125 C 2.796875 -3.144531 2.804688 -2.972656 2.828125 -2.796875 C 2.890625 -2.410156 3.046875 -2.101562 3.296875 -1.875 C 3.554688 -1.644531 3.894531 -1.53125 4.3125 -1.53125 C 4.726562 -1.53125 5.09375 -1.640625 5.40625 -1.859375 C 5.726562 -2.078125 5.953125 -2.363281 6.078125 -2.71875 C 6.097656 -2.738281 6.109375 -2.753906 6.109375 -2.765625 C 6.117188 -2.785156 6.125 -2.796875 6.125 -2.796875 C 6.144531 -2.859375 6.1875 -2.914062 6.25 -2.96875 C 6.320312 -3.019531 6.390625 -3.039062 6.453125 -3.03125 L 7.765625 -2.8125 C 7.929688 -2.78125 7.992188 -2.679688 7.953125 -2.515625 C 7.898438 -2.335938 7.859375 -2.226562 7.828125 -2.1875 C 7.535156 -1.46875 7.050781 -0.898438 6.375 -0.484375 C 5.695312 -0.0664062 4.9375 0.140625 4.09375 0.140625 Z M 4.09375 0.140625 "/></g></g></g><g fill="#f8fdff" fill-opacity="1"><g transform="translate(210.205744, 183.167009)"><g><path d="M 0.9375 0 C 0.851562 0 0.789062 -0.0234375 0.75 -0.078125 C 0.71875 -0.128906 0.707031 -0.191406 0.71875 -0.265625 L 2.078125 -11.40625 C 2.085938 -11.476562 2.117188 -11.539062 2.171875 -11.59375 C 2.222656 -11.644531 2.289062 -11.671875 2.375 -11.671875 L 3.734375 -11.671875 C 3.804688 -11.671875 3.863281 -11.644531 3.90625 -11.59375 C 3.945312 -11.539062 3.960938 -11.476562 3.953125 -11.40625 L 3.234375 -5.484375 C 3.222656 -5.441406 3.226562 -5.414062 3.25 -5.40625 C 3.28125 -5.394531 3.304688 -5.40625 3.328125 -5.4375 L 6.265625 -8.375 C 6.367188 -8.46875 6.484375 -8.515625 6.609375 -8.515625 L 8.171875 -8.515625 C 8.304688 -8.515625 8.375 -8.46875 8.375 -8.375 C 8.375 -8.300781 8.34375 -8.238281 8.28125 -8.1875 L 6 -5.75 C 5.957031 -5.71875 5.945312 -5.675781 5.96875 -5.625 L 7.703125 -0.3125 C 7.710938 -0.289062 7.71875 -0.257812 7.71875 -0.21875 C 7.71875 -0.0703125 7.632812 0 7.46875 0 L 6.03125 0 C 5.882812 0 5.796875 -0.0664062 5.765625 -0.203125 L 4.53125 -4.375 C 4.5 -4.4375 4.457031 -4.441406 4.40625 -4.390625 L 2.953125 -2.875 C 2.921875 -2.820312 2.90625 -2.78125 2.90625 -2.75 L 2.578125 -0.265625 C 2.566406 -0.191406 2.535156 -0.128906 2.484375 -0.078125 C 2.441406 -0.0234375 2.378906 0 2.296875 0 Z M 0.9375 0 "/></g></g></g><g fill="#f8fdff" fill-opacity="1"><g transform="translate(218.637739, 183.167009)"><g><path d="M 2.921875 -9.59375 C 2.609375 -9.59375 2.347656 -9.6875 2.140625 -9.875 C 1.941406 -10.0625 1.84375 -10.304688 1.84375 -10.609375 C 1.84375 -11.003906 1.972656 -11.332031 2.234375 -11.59375 C 2.503906 -11.863281 2.832031 -12 3.21875 -12 C 3.539062 -12 3.796875 -11.90625 3.984375 -11.71875 C 4.179688 -11.53125 4.28125 -11.28125 4.28125 -10.96875 C 4.28125 -10.570312 4.148438 -10.242188 3.890625 -9.984375 C 3.628906 -9.722656 3.304688 -9.59375 2.921875 -9.59375 Z M 1.0625 0 C 0.882812 0 0.804688 -0.0859375 0.828125 -0.265625 L 1.8125 -8.25 C 1.851562 -8.425781 1.957031 -8.515625 2.125 -8.515625 L 3.46875 -8.515625 C 3.644531 -8.515625 3.722656 -8.425781 3.703125 -8.25 L 2.71875 -0.265625 C 2.707031 -0.191406 2.675781 -0.128906 2.625 -0.078125 C 2.570312 -0.0234375 2.507812 0 2.4375 0 Z M 1.0625 0 "/></g></g></g><g fill="#f8fdff" fill-opacity="1"><g transform="translate(222.753755, 183.167009)"><g><path d="M 5.703125 -8.65625 C 6.503906 -8.65625 7.128906 -8.429688 7.578125 -7.984375 C 8.035156 -7.535156 8.265625 -6.925781 8.265625 -6.15625 C 8.265625 -6.050781 8.253906 -5.890625 8.234375 -5.671875 L 7.5625 -0.265625 C 7.550781 -0.191406 7.519531 -0.128906 7.46875 -0.078125 C 7.425781 -0.0234375 7.363281 0 7.28125 0 L 5.921875 0 C 5.742188 0 5.664062 -0.0859375 5.6875 -0.265625 L 6.296875 -5.265625 C 6.304688 -5.335938 6.3125 -5.4375 6.3125 -5.5625 C 6.3125 -6 6.1875 -6.34375 5.9375 -6.59375 C 5.695312 -6.851562 5.375 -6.984375 4.96875 -6.984375 C 4.507812 -6.984375 4.113281 -6.828125 3.78125 -6.515625 C 3.457031 -6.203125 3.265625 -5.789062 3.203125 -5.28125 L 2.578125 -0.265625 C 2.566406 -0.191406 2.535156 -0.128906 2.484375 -0.078125 C 2.441406 -0.0234375 2.378906 0 2.296875 0 L 0.9375 0 C 0.851562 0 0.789062 -0.0234375 0.75 -0.078125 C 0.71875 -0.128906 0.707031 -0.191406 0.71875 -0.265625 L 1.703125 -8.25 C 1.722656 -8.425781 1.816406 -8.515625 1.984375 -8.515625 L 3.328125 -8.515625 C 3.503906 -8.515625 3.582031 -8.425781 3.5625 -8.25 L 3.515625 -7.796875 C 3.503906 -7.753906 3.507812 -7.726562 3.53125 -7.71875 C 3.550781 -7.707031 3.582031 -7.71875 3.625 -7.75 C 4.125 -8.351562 4.816406 -8.65625 5.703125 -8.65625 Z M 5.703125 -8.65625 "/></g></g></g><g fill="#f8fdff" fill-opacity="1"><g transform="translate(231.552362, 183.167009)"><g><path d="M 6.75 -8.25 C 6.757812 -8.332031 6.789062 -8.394531 6.84375 -8.4375 C 6.894531 -8.488281 6.960938 -8.515625 7.046875 -8.515625 L 8.40625 -8.515625 C 8.582031 -8.515625 8.660156 -8.425781 8.640625 -8.25 L 7.6875 -0.5625 C 7.519531 0.820312 7.007812 1.8125 6.15625 2.40625 C 5.300781 3.007812 4.25 3.3125 3 3.3125 C 2.6875 3.3125 2.378906 3.296875 2.078125 3.265625 C 1.941406 3.253906 1.882812 3.15625 1.90625 2.96875 L 2.09375 1.734375 C 2.113281 1.648438 2.148438 1.585938 2.203125 1.546875 C 2.253906 1.503906 2.328125 1.488281 2.421875 1.5 C 2.773438 1.519531 3.023438 1.53125 3.171875 1.53125 C 3.984375 1.53125 4.601562 1.363281 5.03125 1.03125 C 5.457031 0.707031 5.71875 0.160156 5.8125 -0.609375 L 5.828125 -0.71875 C 5.828125 -0.8125 5.789062 -0.828125 5.71875 -0.765625 C 5.21875 -0.285156 4.566406 -0.046875 3.765625 -0.046875 C 3.078125 -0.046875 2.460938 -0.226562 1.921875 -0.59375 C 1.378906 -0.96875 1.046875 -1.53125 0.921875 -2.28125 C 0.878906 -2.519531 0.859375 -2.769531 0.859375 -3.03125 C 0.859375 -3.394531 0.890625 -3.816406 0.953125 -4.296875 C 1.078125 -5.234375 1.25 -5.941406 1.46875 -6.421875 C 1.769531 -7.097656 2.207031 -7.640625 2.78125 -8.046875 C 3.363281 -8.453125 4.007812 -8.65625 4.71875 -8.65625 C 5.539062 -8.65625 6.171875 -8.40625 6.609375 -7.90625 C 6.628906 -7.875 6.648438 -7.863281 6.671875 -7.875 C 6.691406 -7.882812 6.707031 -7.910156 6.71875 -7.953125 Z M 5.96875 -2.828125 C 6.03125 -2.992188 6.082031 -3.175781 6.125 -3.375 C 6.175781 -3.570312 6.222656 -3.882812 6.265625 -4.3125 C 6.328125 -4.71875 6.359375 -5.050781 6.359375 -5.3125 C 6.359375 -5.414062 6.34375 -5.566406 6.3125 -5.765625 C 6.28125 -6.128906 6.140625 -6.421875 5.890625 -6.640625 C 5.648438 -6.867188 5.332031 -6.984375 4.9375 -6.984375 C 4.53125 -6.984375 4.179688 -6.867188 3.890625 -6.640625 C 3.597656 -6.421875 3.375 -6.128906 3.21875 -5.765625 C 3.0625 -5.460938 2.929688 -4.972656 2.828125 -4.296875 C 2.785156 -3.953125 2.765625 -3.632812 2.765625 -3.34375 C 2.765625 -3.132812 2.78125 -2.96875 2.8125 -2.84375 C 2.882812 -2.488281 3.046875 -2.195312 3.296875 -1.96875 C 3.554688 -1.75 3.882812 -1.640625 4.28125 -1.640625 C 4.707031 -1.640625 5.0625 -1.75 5.34375 -1.96875 C 5.632812 -2.1875 5.84375 -2.472656 5.96875 -2.828125 Z M 5.96875 -2.828125 "/></g></g></g></svg>